ISO-10303-21;
HEADER;

/* File generated by HOOPS Exchange Version 25.8.0 */

FILE_DESCRIPTION(('HOOPS Exchange Step'),'2;1');

FILE_NAME('/Volumes/Primary/Projects/THQWGD001/step/THQWGD001C/THQWGD001C_shaft.stp',
'2026-05-24T03:52:30-15:00',
('hayashi'),
('Unknown organisation'),
'HOOPS Exchange 2025.8',
'HOOPS Exchange',
'Unknown authorisation');

FILE_SCHEMA( ('AP203_CONFIGURATION_CONTROLLED_3D_DESIGN_OF_MECHANICAL_PARTS_AND_ASSEMBLIES_MIM_LF') );

ENDSEC;

DATA;
#3=(NAMED_UNIT(*)PLANE_ANGLE_UNIT()SI_UNIT($,.RADIAN.));
#4=PLANE_ANGLE_MEASURE_WITH_UNIT(PLANE_ANGLE_MEASURE(0.0174532925),#3);
#5=(CONVERSION_BASED_UNIT('DEGREE',#4)NAMED_UNIT(#6)PLANE_ANGLE_UNIT());
#6=DIMENSIONAL_EXPONENTS(0.,0.,0.,0.,0.,0.,0.);
#7=(NAMED_UNIT(*)SI_UNIT($,.STERADIAN.)SOLID_ANGLE_UNIT());
#8=(LENGTH_UNIT()NAMED_UNIT(*)SI_UNIT(.MILLI.,.METRE.));
#9=UNCERTAINTY_MEASURE_WITH_UNIT(LENGTH_MEASURE(1.000000E-05),#8,'DISTANCE_ACCURACY_VALUE','Maximum Tolerance applied to model');
#10=(GEOMETRIC_REPRESENTATION_CONTEXT(3)GLOBAL_UNCERTAINTY_ASSIGNED_CONTEXT((#9))GLOBAL_UNIT_ASSIGNED_CONTEXT((#8,#5,#7))REPRESENTATION_CONTEXT('','root'));
#12=CARTESIAN_POINT('',(0.,0.,0.));
#13=DIRECTION('',(0.,0.,1.));
#14=DIRECTION('',(1.,0.,0.));
#15=AXIS2_PLACEMENT_3D('TS3D_PRODUCT_CSYS',#12,#13,#14);
#27=CARTESIAN_POINT('',(4.260350147,3.86983293,8.632447298));
#28=DIRECTION('',(-0.000000006,-0.999999907,0.000430864));
#29=DIRECTION('',(0.499999965,0.000373136,0.866025343));
#30=AXIS2_PLACEMENT_3D('',#27,#28,#29);
#31=PLANE('',#30);
#32=CARTESIAN_POINT('',(2.006032983,3.871223356,11.85948079));
#33=VERTEX_POINT('',#32);
#34=CARTESIAN_POINT('',(2.008843071,3.870469345,10.109483209));
#35=VERTEX_POINT('',#34);
#36=CARTESIAN_POINT('',(2.006032983,3.871223356,11.85948079));
#37=DIRECTION('',(0.001605765,-0.000430863,-0.999998618));
#38=VECTOR('',#37,1.75);
#39=LINE('',#36,#38);
#40=EDGE_CURVE('',#33,#35,#39,.T.);
#41=ORIENTED_EDGE('',*,*,#40,.T.);
#42=CARTESIAN_POINT('',(1.508843071,3.870469348,10.109483229));
#43=VERTEX_POINT('',#42);
#44=CARTESIAN_POINT('',(2.008843071,3.870469345,10.109483209));
#45=DIRECTION('',(-1.,0.000000006,0.00000004));
#46=VECTOR('',#45,0.5);
#47=LINE('',#44,#46);
#48=EDGE_CURVE('',#35,#43,#47,.T.);
#49=ORIENTED_EDGE('',*,*,#48,.T.);
#50=CARTESIAN_POINT('',(-0.005294388,3.870091304,9.232050831));
#51=VERTEX_POINT('',#50);
#52=CARTESIAN_POINT('',(1.508843071,3.870469348,10.109483229));
#53=DIRECTION('',(-0.865221405,-0.000216025,-0.501389942));
#54=VECTOR('',#53,1.75);
#55=LINE('',#52,#54);
#56=EDGE_CURVE('',#43,#51,#55,.T.);
#57=ORIENTED_EDGE('',*,*,#56,.T.);
#58=CARTESIAN_POINT('',(-0.255294405,3.869904736,8.799038179));
#59=VERTEX_POINT('',#58);
#60=CARTESIAN_POINT('',(-0.005294388,3.870091304,9.232050831));
#61=DIRECTION('',(-0.499999965,-0.000373136,-0.866025343));
#62=VECTOR('',#61,0.5);
#63=LINE('',#60,#62);
#64=EDGE_CURVE('',#51,#59,#63,.T.);
#65=ORIENTED_EDGE('',*,*,#64,.T.);
#66=CARTESIAN_POINT('',(-1.772241952,3.870280702,9.671603363));
#67=VERTEX_POINT('',#66);
#68=CARTESIAN_POINT('',(-0.255294405,3.869904736,8.799038179));
#69=DIRECTION('',(-0.86682717,0.000214838,0.498608676));
#70=VECTOR('',#69,1.75);
#71=LINE('',#68,#70);
#72=EDGE_CURVE('',#59,#67,#71,.T.);
#73=ORIENTED_EDGE('',*,*,#72,.T.);
#74=CARTESIAN_POINT('',(-1.519431776,3.870469367,10.109483351));
#75=VERTEX_POINT('',#74);
#76=CARTESIAN_POINT('',(-1.772241952,3.870280702,9.671603363));
#77=DIRECTION('',(0.499999965,0.000373136,0.866025343));
#78=VECTOR('',#77,0.505620317);
#79=LINE('',#76,#78);
#80=EDGE_CURVE('',#67,#75,#79,.T.);
#81=ORIENTED_EDGE('',*,*,#80,.T.);
#82=CARTESIAN_POINT('',(-1.525052023,3.871221281,11.854613596));
#83=VERTEX_POINT('',#82);
#84=CARTESIAN_POINT('',(-1.519431776,3.870469367,10.109483351));
#85=DIRECTION('',(-0.003220514,0.000430861,0.999994721));
#86=VECTOR('',#85,1.745139457);
#87=LINE('',#84,#86);
#88=EDGE_CURVE('',#75,#83,#87,.T.);
#89=ORIENTED_EDGE('',*,*,#88,.T.);
#90=CARTESIAN_POINT('',(-1.775052005,3.871407852,12.287626268));
#91=VERTEX_POINT('',#90);
#92=CARTESIAN_POINT('',(-1.525052023,3.871221281,11.854613596));
#93=DIRECTION('',(-0.499999965,0.000373142,0.866025343));
#94=VECTOR('',#93,0.5);
#95=LINE('',#92,#94);
#96=EDGE_CURVE('',#83,#91,#95,.T.);
#97=ORIENTED_EDGE('',*,*,#96,.T.);
#98=CARTESIAN_POINT('',(-0.260914546,3.871785896,13.165058666));
#99=VERTEX_POINT('',#98);
#100=CARTESIAN_POINT('',(-1.775052005,3.871407852,12.287626268));
#101=DIRECTION('',(0.865221405,0.000216025,0.501389942));
#102=VECTOR('',#101,1.75);
#103=LINE('',#100,#102);
#104=EDGE_CURVE('',#91,#99,#103,.T.);
#105=ORIENTED_EDGE('',*,*,#104,.T.);
#106=CARTESIAN_POINT('',(-0.008104406,3.871597228,12.727178657));
#107=VERTEX_POINT('',#106);
#108=CARTESIAN_POINT('',(-0.260914546,3.871785896,13.165058666));
#109=DIRECTION('',(0.499999965,-0.000373142,-0.866025343));
#110=VECTOR('',#109,0.505620317);
#111=LINE('',#108,#110);
#112=EDGE_CURVE('',#99,#107,#111,.T.);
#113=ORIENTED_EDGE('',*,*,#112,.T.);
#114=CARTESIAN_POINT('',(1.506032983,3.871223359,11.85948081));
#115=VERTEX_POINT('',#114);
#116=CARTESIAN_POINT('',(-0.008104406,3.871597228,12.727178657));
#117=DIRECTION('',(0.86763117,-0.000214234,-0.497208314));
#118=VECTOR('',#117,1.745139457);
#119=LINE('',#116,#118);
#120=EDGE_CURVE('',#107,#115,#119,.T.);
#121=ORIENTED_EDGE('',*,*,#120,.T.);
#122=CARTESIAN_POINT('',(1.506032983,3.871223359,11.85948081));
#123=DIRECTION('',(1.,-0.000000006,-0.00000004));
#124=VECTOR('',#123,0.5);
#125=LINE('',#122,#124);
#126=EDGE_CURVE('',#115,#33,#125,.T.);
#127=ORIENTED_EDGE('',*,*,#126,.T.);
#128=EDGE_LOOP('',(#41,#49,#57,#65,#73,#81,#89,#97,#105,#113,#121,#127));
#129=FACE_BOUND('',#128,.T.);
#130=CARTESIAN_POINT('',(-0.498416938,3.871211289,11.831438896));
#131=VERTEX_POINT('',#130);
#132=CARTESIAN_POINT('',(0.482183396,3.871211289,11.831453091));
#133=VERTEX_POINT('',#132);
#134=CARTESIAN_POINT('',(-0.498416938,3.871211289,11.831438896));
#135=DIRECTION('',(1.,0.,0.000014475));
#136=VECTOR('',#135,0.980600333);
#137=LINE('',#134,#136);
#138=EDGE_CURVE('',#131,#133,#137,.T.);
#139=ORIENTED_EDGE('',*,*,#138,.F.);
#140=CARTESIAN_POINT('',(-0.988704812,3.870845389,10.982207));
#141=VERTEX_POINT('',#140);
#142=CARTESIAN_POINT('',(-0.988704812,3.870845389,10.982207));
#143=DIRECTION('',(0.499987429,0.000373139,0.866032581));
#144=VECTOR('',#143,0.980600401);
#145=LINE('',#142,#144);
#146=EDGE_CURVE('',#141,#131,#145,.T.);
#147=ORIENTED_EDGE('',*,*,#146,.F.);
#148=CARTESIAN_POINT('',(-0.498392352,3.870479489,10.132989298));
#149=VERTEX_POINT('',#148);
#150=CARTESIAN_POINT('',(-0.498392352,3.870479489,10.132989298));
#151=DIRECTION('',(-0.500012501,0.000373139,0.866018106));
#152=VECTOR('',#151,0.980600401);
#153=LINE('',#150,#152);
#154=EDGE_CURVE('',#149,#141,#153,.T.);
#155=ORIENTED_EDGE('',*,*,#154,.F.);
#156=CARTESIAN_POINT('',(0.482207981,3.870479489,10.133003492));
#157=VERTEX_POINT('',#156);
#158=CARTESIAN_POINT('',(0.482207981,3.870479489,10.133003492));
#159=DIRECTION('',(-1.,-0.,-0.000014475));
#160=VECTOR('',#159,0.980600333);
#161=LINE('',#158,#160);
#162=EDGE_CURVE('',#157,#149,#161,.T.);
#163=ORIENTED_EDGE('',*,*,#162,.F.);
#164=CARTESIAN_POINT('',(0.972495855,3.870845389,10.982235388));
#165=VERTEX_POINT('',#164);
#166=CARTESIAN_POINT('',(0.972495855,3.870845389,10.982235388));
#167=DIRECTION('',(-0.499987429,-0.000373139,-0.866032581));
#168=VECTOR('',#167,0.980600401);
#169=LINE('',#166,#168);
#170=EDGE_CURVE('',#165,#157,#169,.T.);
#171=ORIENTED_EDGE('',*,*,#170,.F.);
#172=CARTESIAN_POINT('',(0.482183396,3.871211289,11.831453091));
#173=DIRECTION('',(0.500012501,-0.000373139,-0.866018106));
#174=VECTOR('',#173,0.980600401);
#175=LINE('',#172,#174);
#176=EDGE_CURVE('',#133,#165,#175,.T.);
#177=ORIENTED_EDGE('',*,*,#176,.F.);
#178=EDGE_LOOP('',(#139,#147,#155,#163,#171,#177));
#179=FACE_BOUND('',#178,.T.);
#180=ADVANCED_FACE('',(#129,#179),#31,.F.);
#181=CARTESIAN_POINT('',(2.00603298,3.471223393,11.859653136));
#182=DIRECTION('',(-0.999998711,-0.000000686,-0.001605764));
#183=DIRECTION('',(0.001605764,0.,-0.999998711));
#184=AXIS2_PLACEMENT_3D('',#181,#182,#183);
#185=PLANE('',#184);
#186=CARTESIAN_POINT('',(2.00603294,-3.028776004,11.862453749));
#187=VERTEX_POINT('',#186);
#188=CARTESIAN_POINT('',(2.006032929,-4.728213445,11.863185975));
#189=VERTEX_POINT('',#188);
#190=CARTESIAN_POINT('',(2.00603294,-3.028776004,11.862453749));
#191=CARTESIAN_POINT('',(2.006032929,-4.728213445,11.863185975));
#192=B_SPLINE_CURVE_WITH_KNOTS('',1,(#190,#191),.UNSPECIFIED.,.F.,.F.,(2,2),(0.359418938,0.4921875),.UNSPECIFIED.);
#193=EDGE_CURVE('',#187,#189,#192,.T.);
#194=ORIENTED_EDGE('',*,*,#193,.T.);
#195=CARTESIAN_POINT('',(2.008843017,-4.728213445,10.113188069));
#196=VERTEX_POINT('',#195);
#197=CARTESIAN_POINT('',(2.006032929,-4.728213445,11.863185975));
#198=DIRECTION('',(0.001605764,0.,-0.999998711));
#199=VECTOR('',#198,1.750000162);
#200=LINE('',#197,#199);
#201=EDGE_CURVE('',#189,#196,#200,.T.);
#202=ORIENTED_EDGE('',*,*,#201,.T.);
#203=CARTESIAN_POINT('',(2.008843028,-3.029530014,10.112456168));
#204=VERTEX_POINT('',#203);
#205=CARTESIAN_POINT('',(2.008843028,-3.029530014,10.112456168));
#206=CARTESIAN_POINT('',(2.008843017,-4.728213445,10.113188069));
#207=B_SPLINE_CURVE_WITH_KNOTS('',1,(#205,#206),.UNSPECIFIED.,.F.,.F.,(2,2),(0.5078125,0.640522155),.UNSPECIFIED.);
#208=EDGE_CURVE('',#204,#196,#207,.T.);
#209=ORIENTED_EDGE('',*,*,#208,.F.);
#210=CARTESIAN_POINT('',(2.008843071,3.870469345,10.109483209));
#211=CARTESIAN_POINT('',(2.008843028,-3.029530014,10.112456168));
#212=B_SPLINE_CURVE_WITH_KNOTS('',1,(#210,#211),.UNSPECIFIED.,.F.,.F.,(2,2),(-0.03125,0.5078125),.UNSPECIFIED.);
#213=EDGE_CURVE('',#35,#204,#212,.T.);
#214=ORIENTED_EDGE('',*,*,#213,.F.);
#215=ORIENTED_EDGE('',*,*,#40,.F.);
#216=CARTESIAN_POINT('',(2.006032983,3.871223356,11.85948079));
#217=CARTESIAN_POINT('',(2.00603294,-3.028776004,11.862453749));
#218=B_SPLINE_CURVE_WITH_KNOTS('',1,(#216,#217),.UNSPECIFIED.,.F.,.F.,(2,2),(0.4921875,1.03125),.UNSPECIFIED.);
#219=EDGE_CURVE('',#33,#187,#218,.T.);
#220=ORIENTED_EDGE('',*,*,#219,.T.);
#221=EDGE_LOOP('',(#194,#202,#209,#214,#215,#220));
#222=FACE_BOUND('',#221,.T.);
#223=ADVANCED_FACE('',(#222),#185,.F.);
#224=CARTESIAN_POINT('',(1.50603298,3.471223396,11.859653156));
#225=DIRECTION('',(-0.00000004,-0.000430864,-0.999999907));
#226=DIRECTION('',(1.,0.,-0.00000004));
#227=AXIS2_PLACEMENT_3D('',#224,#225,#226);
#228=PLANE('',#227);
#229=CARTESIAN_POINT('',(1.50603294,-3.028776001,11.862453769));
#230=VERTEX_POINT('',#229);
#231=CARTESIAN_POINT('',(1.506032983,3.871223359,11.85948081));
#232=CARTESIAN_POINT('',(1.50603294,-3.028776001,11.862453769));
#233=B_SPLINE_CURVE_WITH_KNOTS('',1,(#231,#232),.UNSPECIFIED.,.F.,.F.,(2,2),(0.4921875,1.03125),.UNSPECIFIED.);
#234=EDGE_CURVE('',#115,#230,#233,.T.);
#235=ORIENTED_EDGE('',*,*,#234,.T.);
#236=CARTESIAN_POINT('',(1.50603294,-3.028776001,11.862453769));
#237=DIRECTION('',(1.,-0.000000006,-0.00000004));
#238=VECTOR('',#237,0.5);
#239=LINE('',#236,#238);
#240=EDGE_CURVE('',#230,#187,#239,.T.);
#241=ORIENTED_EDGE('',*,*,#240,.T.);
#242=ORIENTED_EDGE('',*,*,#219,.F.);
#243=ORIENTED_EDGE('',*,*,#126,.F.);
#244=EDGE_LOOP('',(#235,#241,#242,#243));
#245=FACE_BOUND('',#244,.T.);
#246=ADVANCED_FACE('',(#245),#228,.F.);
#247=CARTESIAN_POINT('',(-0.008104408,3.471597265,12.727351003));
#248=DIRECTION('',(-0.49720836,-0.000373828,-0.867631089));
#249=DIRECTION('',(0.86763115,0.,-0.497208395));
#250=AXIS2_PLACEMENT_3D('',#247,#248,#249);
#251=PLANE('',#250);
#252=CARTESIAN_POINT('',(-0.008104449,-3.028402132,12.730151616));
#253=VERTEX_POINT('',#252);
#254=CARTESIAN_POINT('',(-0.008104406,3.871597228,12.727178657));
#255=CARTESIAN_POINT('',(-0.008104449,-3.028402132,12.730151616));
#256=B_SPLINE_CURVE_WITH_KNOTS('',1,(#254,#255),.UNSPECIFIED.,.F.,.F.,(2,2),(0.4921875,1.03125),.UNSPECIFIED.);
#257=EDGE_CURVE('',#107,#253,#256,.T.);
#258=ORIENTED_EDGE('',*,*,#257,.T.);
#259=CARTESIAN_POINT('',(-0.008104449,-3.028402132,12.730151616));
#260=DIRECTION('',(0.86763117,-0.000214234,-0.497208314));
#261=VECTOR('',#260,1.745139457);
#262=LINE('',#259,#261);
#263=EDGE_CURVE('',#253,#230,#262,.T.);
#264=ORIENTED_EDGE('',*,*,#263,.T.);
#265=ORIENTED_EDGE('',*,*,#234,.F.);
#266=ORIENTED_EDGE('',*,*,#120,.F.);
#267=EDGE_LOOP('',(#258,#264,#265,#266));
#268=FACE_BOUND('',#267,.T.);
#269=ADVANCED_FACE('',(#268),#251,.F.);
#270=CARTESIAN_POINT('',(-0.260914549,3.471785933,13.165231011));
#271=DIRECTION('',(-0.866025424,-0.000215426,-0.499999919));
#272=DIRECTION('',(0.49999993,0.,-0.866025444));
#273=AXIS2_PLACEMENT_3D('',#270,#271,#272);
#274=PLANE('',#273);
#275=CARTESIAN_POINT('',(-0.26091459,-3.028213464,13.168031624));
#276=VERTEX_POINT('',#275);
#277=CARTESIAN_POINT('',(-0.260914546,3.871785896,13.165058666));
#278=CARTESIAN_POINT('',(-0.26091459,-3.028213464,13.168031624));
#279=B_SPLINE_CURVE_WITH_KNOTS('',1,(#277,#278),.UNSPECIFIED.,.F.,.F.,(2,2),(0.4921875,1.03125),.UNSPECIFIED.);
#280=EDGE_CURVE('',#99,#276,#279,.T.);
#281=ORIENTED_EDGE('',*,*,#280,.T.);
#282=CARTESIAN_POINT('',(-0.26091459,-3.028213464,13.168031624));
#283=DIRECTION('',(0.499999965,-0.000373142,-0.866025343));
#284=VECTOR('',#283,0.505620317);
#285=LINE('',#282,#284);
#286=EDGE_CURVE('',#276,#253,#285,.T.);
#287=ORIENTED_EDGE('',*,*,#286,.T.);
#288=ORIENTED_EDGE('',*,*,#257,.F.);
#289=ORIENTED_EDGE('',*,*,#112,.F.);
#290=EDGE_LOOP('',(#281,#287,#288,#289));
#291=FACE_BOUND('',#290,.T.);
#292=ADVANCED_FACE('',(#291),#274,.F.);
#293=CARTESIAN_POINT('',(-1.775052008,3.471407889,12.287798613));
#294=DIRECTION('',(0.501389988,-0.000372796,-0.865221325));
#295=DIRECTION('',(0.865221385,0.,0.501390023));
#296=AXIS2_PLACEMENT_3D('',#293,#294,#295);
#297=PLANE('',#296);
#298=CARTESIAN_POINT('',(-1.775052048,-3.028591508,12.290599226));
#299=VERTEX_POINT('',#298);
#300=CARTESIAN_POINT('',(-1.775052059,-4.728213445,12.291331531));
#301=VERTEX_POINT('',#300);
#302=CARTESIAN_POINT('',(-1.775052048,-3.028591508,12.290599226));
#303=CARTESIAN_POINT('',(-1.775052059,-4.728213445,12.291331531));
#304=B_SPLINE_CURVE_WITH_KNOTS('',1,(#302,#303),.UNSPECIFIED.,.F.,.F.,(2,2),(0.359404524,0.4921875),.UNSPECIFIED.);
#305=EDGE_CURVE('',#299,#301,#304,.T.);
#306=ORIENTED_EDGE('',*,*,#305,.T.);
#307=CARTESIAN_POINT('',(-0.2609146,-4.728213445,13.168764092));
#308=VERTEX_POINT('',#307);
#309=CARTESIAN_POINT('',(-1.775052059,-4.728213445,12.291331531));
#310=DIRECTION('',(0.865221385,0.,0.501390023));
#311=VECTOR('',#310,1.750000041);
#312=LINE('',#309,#311);
#313=EDGE_CURVE('',#301,#308,#312,.T.);
#314=ORIENTED_EDGE('',*,*,#313,.T.);
#315=CARTESIAN_POINT('',(-0.26091459,-3.028213464,13.168031624));
#316=CARTESIAN_POINT('',(-0.2609146,-4.728213445,13.168764092));
#317=B_SPLINE_CURVE_WITH_KNOTS('',1,(#315,#316),.UNSPECIFIED.,.F.,.F.,(2,2),(0.5078125,0.640625011),.UNSPECIFIED.);
#318=EDGE_CURVE('',#276,#308,#317,.T.);
#319=ORIENTED_EDGE('',*,*,#318,.F.);
#320=ORIENTED_EDGE('',*,*,#280,.F.);
#321=ORIENTED_EDGE('',*,*,#104,.F.);
#322=CARTESIAN_POINT('',(-1.775052005,3.871407852,12.287626268));
#323=CARTESIAN_POINT('',(-1.775052048,-3.028591508,12.290599226));
#324=B_SPLINE_CURVE_WITH_KNOTS('',1,(#322,#323),.UNSPECIFIED.,.F.,.F.,(2,2),(0.4921875,1.03125),.UNSPECIFIED.);
#325=EDGE_CURVE('',#91,#299,#324,.T.);
#326=ORIENTED_EDGE('',*,*,#325,.T.);
#327=EDGE_LOOP('',(#306,#314,#319,#320,#321,#326));
#328=FACE_BOUND('',#327,.T.);
#329=ADVANCED_FACE('',(#328),#297,.F.);
#330=CARTESIAN_POINT('',(-1.525052025,3.471221318,11.854785941));
#331=DIRECTION('',(0.866025424,0.000215426,0.499999919));
#332=DIRECTION('',(-0.49999993,-0.,0.866025444));
#333=AXIS2_PLACEMENT_3D('',#330,#331,#332);
#334=PLANE('',#333);
#335=CARTESIAN_POINT('',(-1.525052066,-3.028778079,11.857586554));
#336=VERTEX_POINT('',#335);
#337=CARTESIAN_POINT('',(-1.525052023,3.871221281,11.854613596));
#338=CARTESIAN_POINT('',(-1.525052066,-3.028778079,11.857586554));
#339=B_SPLINE_CURVE_WITH_KNOTS('',1,(#337,#338),.UNSPECIFIED.,.F.,.F.,(2,2),(0.4921875,1.03125),.UNSPECIFIED.);
#340=EDGE_CURVE('',#83,#336,#339,.T.);
#341=ORIENTED_EDGE('',*,*,#340,.T.);
#342=CARTESIAN_POINT('',(-1.525052066,-3.028778079,11.857586554));
#343=DIRECTION('',(-0.499999965,0.000373142,0.866025343));
#344=VECTOR('',#343,0.5);
#345=LINE('',#342,#344);
#346=EDGE_CURVE('',#336,#299,#345,.T.);
#347=ORIENTED_EDGE('',*,*,#346,.T.);
#348=ORIENTED_EDGE('',*,*,#325,.F.);
#349=ORIENTED_EDGE('',*,*,#96,.F.);
#350=EDGE_LOOP('',(#341,#347,#348,#349));
#351=FACE_BOUND('',#350,.T.);
#352=ADVANCED_FACE('',(#351),#334,.F.);
#353=CARTESIAN_POINT('',(-1.519431779,3.470469405,10.109655696));
#354=DIRECTION('',(0.999994814,0.000001381,0.003220514));
#355=DIRECTION('',(-0.003220514,-0.,0.999994814));
#356=AXIS2_PLACEMENT_3D('',#353,#354,#355);
#357=PLANE('',#356);
#358=CARTESIAN_POINT('',(-1.519431819,-3.029529992,10.112456309));
#359=VERTEX_POINT('',#358);
#360=CARTESIAN_POINT('',(-1.519431776,3.870469367,10.109483351));
#361=CARTESIAN_POINT('',(-1.519431819,-3.029529992,10.112456309));
#362=B_SPLINE_CURVE_WITH_KNOTS('',1,(#360,#361),.UNSPECIFIED.,.F.,.F.,(2,2),(0.4921875,1.03125),.UNSPECIFIED.);
#363=EDGE_CURVE('',#75,#359,#362,.T.);
#364=ORIENTED_EDGE('',*,*,#363,.T.);
#365=CARTESIAN_POINT('',(-1.519431819,-3.029529992,10.112456309));
#366=DIRECTION('',(-0.003220514,0.000430861,0.999994721));
#367=VECTOR('',#366,1.745139457);
#368=LINE('',#365,#367);
#369=EDGE_CURVE('',#359,#336,#368,.T.);
#370=ORIENTED_EDGE('',*,*,#369,.T.);
#371=ORIENTED_EDGE('',*,*,#340,.F.);
#372=ORIENTED_EDGE('',*,*,#88,.F.);
#373=EDGE_LOOP('',(#364,#370,#371,#372));
#374=FACE_BOUND('',#373,.T.);
#375=ADVANCED_FACE('',(#374),#357,.F.);
#376=CARTESIAN_POINT('',(-0.714061936,3.471070429,11.504597264));
#377=DIRECTION('',(0.866025424,-0.000215437,-0.499999919));
#378=DIRECTION('',(0.000186574,0.999999977,-0.000107719));
#379=AXIS2_PLACEMENT_3D('',#376,#377,#378);
#380=PLANE('',#379);
#381=CARTESIAN_POINT('',(-1.772241995,-3.029718657,9.674576321));
#382=VERTEX_POINT('',#381);
#383=CARTESIAN_POINT('',(-1.772241952,3.870280702,9.671603363));
#384=CARTESIAN_POINT('',(-1.772241995,-3.029718657,9.674576321));
#385=B_SPLINE_CURVE_WITH_KNOTS('',1,(#383,#384),.UNSPECIFIED.,.F.,.F.,(2,2),(0.4921875,1.03125),.UNSPECIFIED.);
#386=EDGE_CURVE('',#67,#382,#385,.T.);
#387=ORIENTED_EDGE('',*,*,#386,.T.);
#388=CARTESIAN_POINT('',(-1.772241995,-3.029718657,9.674576321));
#389=DIRECTION('',(0.499999965,0.000373136,0.866025343));
#390=VECTOR('',#389,0.505620317);
#391=LINE('',#388,#390);
#392=EDGE_CURVE('',#382,#359,#391,.T.);
#393=ORIENTED_EDGE('',*,*,#392,.T.);
#394=ORIENTED_EDGE('',*,*,#363,.F.);
#395=ORIENTED_EDGE('',*,*,#80,.F.);
#396=EDGE_LOOP('',(#387,#393,#394,#395));
#397=FACE_BOUND('',#396,.T.);
#398=ADVANCED_FACE('',(#397),#380,.F.);
#399=CARTESIAN_POINT('',(-0.255294408,3.469904774,8.799210525));
#400=DIRECTION('',(0.498608722,0.000373481,0.866827089));
#401=DIRECTION('',(-0.86682715,-0.,0.498608757));
#402=AXIS2_PLACEMENT_3D('',#399,#400,#401);
#403=PLANE('',#402);
#404=CARTESIAN_POINT('',(-0.255294468,-6.228213445,8.803389091));
#405=VERTEX_POINT('',#404);
#406=CARTESIAN_POINT('',(-0.255294912,-8.630467206,8.804424052));
#407=VERTEX_POINT('',#406);
#408=CARTESIAN_POINT('',(-0.255294468,-6.228213445,8.803389091));
#409=CARTESIAN_POINT('',(-0.255294483,-8.630467206,8.804424135));
#410=B_SPLINE_CURVE_WITH_KNOTS('',1,(#408,#409),.UNSPECIFIED.,.F.,.F.,(2,2),(0.054658351,0.242334444),.UNSPECIFIED.);
#411=EDGE_CURVE('',#405,#407,#410,.T.);
#412=ORIENTED_EDGE('',*,*,#411,.T.);
#413=CARTESIAN_POINT('',(-1.772055631,-8.629904831,9.676882019));
#414=VERTEX_POINT('',#413);
#415=CARTESIAN_POINT('',(-0.25529477,-8.630467492,8.8044243));
#416=DIRECTION('',(-0.86682717,0.000214838,0.498608676));
#417=VECTOR('',#416,1.749784634);
#418=LINE('',#415,#417);
#419=EDGE_CURVE('',#407,#414,#418,.T.);
#420=ORIENTED_EDGE('',*,*,#419,.T.);
#421=CARTESIAN_POINT('',(-1.772242015,-6.228213445,9.675954436));
#422=VERTEX_POINT('',#421);
#423=CARTESIAN_POINT('',(-1.772242015,-6.228213445,9.675954436));
#424=CARTESIAN_POINT('',(-1.77224203,-8.629904785,9.676989238));
#425=B_SPLINE_CURVE_WITH_KNOTS('',1,(#423,#424),.UNSPECIFIED.,.F.,.F.,(2,2),(0.757694929,0.945327082),.UNSPECIFIED.);
#426=EDGE_CURVE('',#422,#414,#425,.T.);
#427=ORIENTED_EDGE('',*,*,#426,.F.);
#428=CARTESIAN_POINT('',(-1.472056365,-6.228213445,9.503284263));
#429=VERTEX_POINT('',#428);
#430=CARTESIAN_POINT('',(-1.472056365,-6.228213445,9.503284263));
#431=DIRECTION('',(-0.86682715,-0.,0.498608757));
#432=VECTOR('',#431,0.346303932);
#433=LINE('',#430,#432);
#434=EDGE_CURVE('',#429,#422,#433,.T.);
#435=ORIENTED_EDGE('',*,*,#434,.F.);
#436=CARTESIAN_POINT('',(-1.472056356,-4.728213445,9.502637968));
#437=VERTEX_POINT('',#436);
#438=CARTESIAN_POINT('',(-1.472056356,-4.728213445,9.502637968));
#439=DIRECTION('',(-0.000000006,-0.999999907,0.000430864));
#440=VECTOR('',#439,1.500000139);
#441=LINE('',#438,#440);
#442=EDGE_CURVE('',#437,#429,#441,.T.);
#443=ORIENTED_EDGE('',*,*,#442,.F.);
#444=CARTESIAN_POINT('',(-1.772242006,-4.728213445,9.675308141));
#445=VERTEX_POINT('',#444);
#446=CARTESIAN_POINT('',(-1.472056356,-4.728213445,9.502637968));
#447=DIRECTION('',(-0.86682715,-0.,0.498608757));
#448=VECTOR('',#447,0.346303932);
#449=LINE('',#446,#448);
#450=EDGE_CURVE('',#437,#445,#449,.T.);
#451=ORIENTED_EDGE('',*,*,#450,.T.);
#452=CARTESIAN_POINT('',(-1.772241995,-3.029718657,9.674576321));
#453=CARTESIAN_POINT('',(-1.772242006,-4.728213445,9.675308141));
#454=B_SPLINE_CURVE_WITH_KNOTS('',1,(#452,#453),.UNSPECIFIED.,.F.,.F.,(2,2),(0.5078125,0.640507418),.UNSPECIFIED.);
#455=EDGE_CURVE('',#382,#445,#454,.T.);
#456=ORIENTED_EDGE('',*,*,#455,.F.);
#457=ORIENTED_EDGE('',*,*,#386,.F.);
#458=ORIENTED_EDGE('',*,*,#72,.F.);
#459=CARTESIAN_POINT('',(-0.255294414,-3.030094623,8.802011158));
#460=VERTEX_POINT('',#459);
#461=CARTESIAN_POINT('',(-0.255294405,3.869904736,8.799038179));
#462=CARTESIAN_POINT('',(-0.255294448,-3.030094623,8.802011138));
#463=B_SPLINE_CURVE_WITH_KNOTS('',1,(#461,#462),.UNSPECIFIED.,.F.,.F.,(2,2),(0.4921875,1.03125),.UNSPECIFIED.);
#464=EDGE_CURVE('',#59,#460,#463,.T.);
#465=ORIENTED_EDGE('',*,*,#464,.T.);
#466=CARTESIAN_POINT('',(-0.255294459,-4.728213445,8.802742796));
#467=VERTEX_POINT('',#466);
#468=CARTESIAN_POINT('',(-0.255294448,-3.030094623,8.802011138));
#469=CARTESIAN_POINT('',(-0.255294459,-4.728213445,8.802742796));
#470=B_SPLINE_CURVE_WITH_KNOTS('',1,(#468,#469),.UNSPECIFIED.,.F.,.F.,(2,2),(0.359521955,0.4921875),.UNSPECIFIED.);
#471=EDGE_CURVE('',#460,#467,#470,.T.);
#472=ORIENTED_EDGE('',*,*,#471,.T.);
#473=CARTESIAN_POINT('',(-0.55566443,-4.728213445,8.975518992));
#474=VERTEX_POINT('',#473);
#475=CARTESIAN_POINT('',(-0.255294459,-4.728213445,8.802742796));
#476=DIRECTION('',(-0.86682715,-0.,0.498608757));
#477=VECTOR('',#476,0.34651657);
#478=LINE('',#475,#477);
#479=EDGE_CURVE('',#467,#474,#478,.T.);
#480=ORIENTED_EDGE('',*,*,#479,.T.);
#481=CARTESIAN_POINT('',(-0.555664439,-6.228213445,8.976165288));
#482=VERTEX_POINT('',#481);
#483=CARTESIAN_POINT('',(-0.55566443,-4.728213445,8.975518992));
#484=DIRECTION('',(-0.000000006,-0.999999907,0.000430864));
#485=VECTOR('',#484,1.500000139);
#486=LINE('',#483,#485);
#487=EDGE_CURVE('',#474,#482,#486,.T.);
#488=ORIENTED_EDGE('',*,*,#487,.T.);
#489=CARTESIAN_POINT('',(-0.255294468,-6.228213445,8.803389091));
#490=DIRECTION('',(-0.86682715,-0.,0.498608757));
#491=VECTOR('',#490,0.34651657);
#492=LINE('',#489,#491);
#493=EDGE_CURVE('',#405,#482,#492,.T.);
#494=ORIENTED_EDGE('',*,*,#493,.F.);
#495=EDGE_LOOP('',(#412,#420,#427,#435,#443,#451,#456,#457,#458,#465,#472,#480,#488,#494));
#496=FACE_BOUND('',#495,.T.);
#497=ADVANCED_FACE('',(#496),#403,.F.);
#498=CARTESIAN_POINT('',(0.801480637,3.470693415,10.629598514));
#499=DIRECTION('',(-0.866025424,0.000215437,0.499999919));
#500=DIRECTION('',(-0.000186574,-0.999999977,0.000107719));
#501=AXIS2_PLACEMENT_3D('',#498,#499,#500);
#502=PLANE('',#501);
#503=CARTESIAN_POINT('',(-0.005294431,-3.029908055,9.23502379));
#504=VERTEX_POINT('',#503);
#505=CARTESIAN_POINT('',(-0.005294388,3.870091304,9.232050831));
#506=CARTESIAN_POINT('',(-0.005294431,-3.029908055,9.23502379));
#507=B_SPLINE_CURVE_WITH_KNOTS('',1,(#505,#506),.UNSPECIFIED.,.F.,.F.,(2,2),(0.4921875,1.03125),.UNSPECIFIED.);
#508=EDGE_CURVE('',#51,#504,#507,.T.);
#509=ORIENTED_EDGE('',*,*,#508,.T.);
#510=CARTESIAN_POINT('',(-0.005294431,-3.029908055,9.23502379));
#511=DIRECTION('',(-0.499999965,-0.000373136,-0.866025343));
#512=VECTOR('',#511,0.499999965);
#513=LINE('',#510,#512);
#514=EDGE_CURVE('',#504,#460,#513,.T.);
#515=ORIENTED_EDGE('',*,*,#514,.T.);
#516=ORIENTED_EDGE('',*,*,#464,.F.);
#517=ORIENTED_EDGE('',*,*,#64,.F.);
#518=EDGE_LOOP('',(#509,#515,#516,#517));
#519=FACE_BOUND('',#518,.T.);
#520=ADVANCED_FACE('',(#519),#502,.F.);
#521=CARTESIAN_POINT('',(1.508843068,3.470469386,10.109655575));
#522=DIRECTION('',(-0.501389988,0.000372796,0.865221325));
#523=DIRECTION('',(-0.865221385,-0.,-0.501390023));
#524=AXIS2_PLACEMENT_3D('',#521,#522,#523);
#525=PLANE('',#524);
#526=CARTESIAN_POINT('',(1.508843028,-3.029530011,10.112456188));
#527=VERTEX_POINT('',#526);
#528=CARTESIAN_POINT('',(1.508843071,3.870469348,10.109483229));
#529=CARTESIAN_POINT('',(1.508843028,-3.029530011,10.112456188));
#530=B_SPLINE_CURVE_WITH_KNOTS('',1,(#528,#529),.UNSPECIFIED.,.F.,.F.,(2,2),(0.4921875,1.03125),.UNSPECIFIED.);
#531=EDGE_CURVE('',#43,#527,#530,.T.);
#532=ORIENTED_EDGE('',*,*,#531,.T.);
#533=CARTESIAN_POINT('',(1.508843028,-3.029530011,10.112456188));
#534=DIRECTION('',(-0.865221405,-0.000216025,-0.501389942));
#535=VECTOR('',#534,1.75);
#536=LINE('',#533,#535);
#537=EDGE_CURVE('',#527,#504,#536,.T.);
#538=ORIENTED_EDGE('',*,*,#537,.T.);
#539=ORIENTED_EDGE('',*,*,#508,.F.);
#540=ORIENTED_EDGE('',*,*,#56,.F.);
#541=EDGE_LOOP('',(#532,#538,#539,#540));
#542=FACE_BOUND('',#541,.T.);
#543=ADVANCED_FACE('',(#542),#525,.F.);
#544=CARTESIAN_POINT('',(2.008843068,3.470469382,10.109655554));
#545=DIRECTION('',(0.00000004,0.000430864,0.999999907));
#546=DIRECTION('',(-1.,-0.,0.00000004));
#547=AXIS2_PLACEMENT_3D('',#544,#545,#546);
#548=PLANE('',#547);
#549=ORIENTED_EDGE('',*,*,#213,.T.);
#550=CARTESIAN_POINT('',(2.008843028,-3.029530014,10.112456168));
#551=DIRECTION('',(-1.,0.000000006,0.00000004));
#552=VECTOR('',#551,0.5);
#553=LINE('',#550,#552);
#554=EDGE_CURVE('',#204,#527,#553,.T.);
#555=ORIENTED_EDGE('',*,*,#554,.T.);
#556=ORIENTED_EDGE('',*,*,#531,.F.);
#557=ORIENTED_EDGE('',*,*,#48,.F.);
#558=EDGE_LOOP('',(#549,#555,#556,#557));
#559=FACE_BOUND('',#558,.T.);
#560=ADVANCED_FACE('',(#559),#548,.F.);
#561=CARTESIAN_POINT('',(-0.008116771,8.469832797,11.831445994));
#562=DIRECTION('',(0.000014475,0.,-1.));
#563=DIRECTION('',(1.,0.,0.000014475));
#564=AXIS2_PLACEMENT_3D('',#561,#562,#563);
#565=PLANE('',#564);
#566=ORIENTED_EDGE('',*,*,#138,.T.);
#567=CARTESIAN_POINT('',(0.482183396,7.469832797,11.831453091));
#568=VERTEX_POINT('',#567);
#569=CARTESIAN_POINT('',(0.482183396,7.469832797,11.831453091));
#570=DIRECTION('',(0.,-1.,-0.));
#571=VECTOR('',#570,3.598621508);
#572=LINE('',#569,#571);
#573=EDGE_CURVE('',#568,#133,#572,.T.);
#574=ORIENTED_EDGE('',*,*,#573,.F.);
#575=CARTESIAN_POINT('',(-0.498416938,7.469832797,11.831438896));
#576=VERTEX_POINT('',#575);
#577=CARTESIAN_POINT('',(-0.498416938,7.469832797,11.831438896));
#578=DIRECTION('',(1.,-0.,0.000014475));
#579=VECTOR('',#578,0.980600333);
#580=LINE('',#577,#579);
#581=EDGE_CURVE('',#576,#568,#580,.T.);
#582=ORIENTED_EDGE('',*,*,#581,.F.);
#583=CARTESIAN_POINT('',(-0.498416938,7.469832797,11.831438896));
#584=DIRECTION('',(0.,-1.,-0.));
#585=VECTOR('',#584,3.598621508);
#586=LINE('',#583,#585);
#587=EDGE_CURVE('',#576,#131,#586,.T.);
#588=ORIENTED_EDGE('',*,*,#587,.T.);
#589=EDGE_LOOP('',(#566,#574,#582,#588));
#590=FACE_BOUND('',#589,.T.);
#591=ADVANCED_FACE('',(#590),#565,.F.);
#592=CARTESIAN_POINT('',(0.727339625,8.469832797,11.40684424));
#593=DIRECTION('',(-0.866018166,-0.,-0.500012536));
#594=DIRECTION('',(0.500012536,0.,-0.866018166));
#595=AXIS2_PLACEMENT_3D('',#592,#593,#594);
#596=PLANE('',#595);
#597=ORIENTED_EDGE('',*,*,#176,.T.);
#598=CARTESIAN_POINT('',(0.972495855,7.469832797,10.982235388));
#599=VERTEX_POINT('',#598);
#600=CARTESIAN_POINT('',(0.972495855,7.469832797,10.982235388));
#601=DIRECTION('',(0.,-1.,-0.));
#602=VECTOR('',#601,3.598987408);
#603=LINE('',#600,#602);
#604=EDGE_CURVE('',#599,#165,#603,.T.);
#605=ORIENTED_EDGE('',*,*,#604,.F.);
#606=CARTESIAN_POINT('',(0.482183396,7.469832797,11.831453091));
#607=DIRECTION('',(0.500012536,-0.,-0.866018166));
#608=VECTOR('',#607,0.980600333);
#609=LINE('',#606,#608);
#610=EDGE_CURVE('',#568,#599,#609,.T.);
#611=ORIENTED_EDGE('',*,*,#610,.F.);
#612=ORIENTED_EDGE('',*,*,#573,.T.);
#613=EDGE_LOOP('',(#597,#605,#611,#612));
#614=FACE_BOUND('',#613,.T.);
#615=ADVANCED_FACE('',(#614),#596,.F.);
#616=CARTESIAN_POINT('',(0.727351918,8.469832797,10.55761944));
#617=DIRECTION('',(-0.866032641,-0.,0.499987464));
#618=DIRECTION('',(-0.499987464,0.,-0.866032641));
#619=AXIS2_PLACEMENT_3D('',#616,#617,#618);
#620=PLANE('',#619);
#621=ORIENTED_EDGE('',*,*,#170,.T.);
#622=CARTESIAN_POINT('',(0.482207981,7.469832797,10.133003492));
#623=VERTEX_POINT('',#622);
#624=CARTESIAN_POINT('',(0.482207981,7.469832797,10.133003492));
#625=DIRECTION('',(0.,-1.,-0.));
#626=VECTOR('',#625,3.599353308);
#627=LINE('',#624,#626);
#628=EDGE_CURVE('',#623,#157,#627,.T.);
#629=ORIENTED_EDGE('',*,*,#628,.F.);
#630=CARTESIAN_POINT('',(0.972495855,7.469832797,10.982235388));
#631=DIRECTION('',(-0.499987464,0.,-0.866032641));
#632=VECTOR('',#631,0.980600333);
#633=LINE('',#630,#632);
#634=EDGE_CURVE('',#599,#623,#633,.T.);
#635=ORIENTED_EDGE('',*,*,#634,.F.);
#636=ORIENTED_EDGE('',*,*,#604,.T.);
#637=EDGE_LOOP('',(#621,#629,#635,#636));
#638=FACE_BOUND('',#637,.T.);
#639=ADVANCED_FACE('',(#638),#620,.F.);
#640=CARTESIAN_POINT('',(-0.008092186,8.469832797,10.132996395));
#641=DIRECTION('',(-0.000014475,-0.,1.));
#642=DIRECTION('',(-1.,-0.,-0.000014475));
#643=AXIS2_PLACEMENT_3D('',#640,#641,#642);
#644=PLANE('',#643);
#645=ORIENTED_EDGE('',*,*,#162,.T.);
#646=CARTESIAN_POINT('',(-0.498392352,7.469832797,10.132989298));
#647=VERTEX_POINT('',#646);
#648=CARTESIAN_POINT('',(-0.498392352,7.469832797,10.132989298));
#649=DIRECTION('',(0.,-1.,-0.));
#650=VECTOR('',#649,3.599353308);
#651=LINE('',#648,#650);
#652=EDGE_CURVE('',#647,#149,#651,.T.);
#653=ORIENTED_EDGE('',*,*,#652,.F.);
#654=CARTESIAN_POINT('',(0.482207981,7.469832797,10.133003492));
#655=DIRECTION('',(-1.,0.,-0.000014475));
#656=VECTOR('',#655,0.980600333);
#657=LINE('',#654,#656);
#658=EDGE_CURVE('',#623,#647,#657,.T.);
#659=ORIENTED_EDGE('',*,*,#658,.F.);
#660=ORIENTED_EDGE('',*,*,#628,.T.);
#661=EDGE_LOOP('',(#645,#653,#659,#660));
#662=FACE_BOUND('',#661,.T.);
#663=ADVANCED_FACE('',(#662),#644,.F.);
#664=CARTESIAN_POINT('',(-0.743548582,8.469832797,10.557598149));
#665=DIRECTION('',(0.866018166,0.,0.500012536));
#666=DIRECTION('',(-0.500012536,-0.,0.866018166));
#667=AXIS2_PLACEMENT_3D('',#664,#665,#666);
#668=PLANE('',#667);
#669=ORIENTED_EDGE('',*,*,#154,.T.);
#670=CARTESIAN_POINT('',(-0.988704812,7.469832797,10.982207));
#671=VERTEX_POINT('',#670);
#672=CARTESIAN_POINT('',(-0.988704812,7.469832797,10.982207));
#673=DIRECTION('',(0.,-1.,-0.));
#674=VECTOR('',#673,3.598987408);
#675=LINE('',#672,#674);
#676=EDGE_CURVE('',#671,#141,#675,.T.);
#677=ORIENTED_EDGE('',*,*,#676,.F.);
#678=CARTESIAN_POINT('',(-0.498392352,7.469832797,10.132989298));
#679=DIRECTION('',(-0.500012536,0.,0.866018166));
#680=VECTOR('',#679,0.980600333);
#681=LINE('',#678,#680);
#682=EDGE_CURVE('',#647,#671,#681,.T.);
#683=ORIENTED_EDGE('',*,*,#682,.F.);
#684=ORIENTED_EDGE('',*,*,#652,.T.);
#685=EDGE_LOOP('',(#669,#677,#683,#684));
#686=FACE_BOUND('',#685,.T.);
#687=ADVANCED_FACE('',(#686),#668,.F.);
#688=CARTESIAN_POINT('',(-0.743560875,8.469832797,11.406822948));
#689=DIRECTION('',(0.866032641,0.,-0.499987464));
#690=DIRECTION('',(0.499987464,-0.,0.866032641));
#691=AXIS2_PLACEMENT_3D('',#688,#689,#690);
#692=PLANE('',#691);
#693=ORIENTED_EDGE('',*,*,#146,.T.);
#694=ORIENTED_EDGE('',*,*,#587,.F.);
#695=CARTESIAN_POINT('',(-0.988704812,7.469832797,10.982207));
#696=DIRECTION('',(0.499987464,-0.,0.866032641));
#697=VECTOR('',#696,0.980600333);
#698=LINE('',#695,#697);
#699=EDGE_CURVE('',#671,#576,#698,.T.);
#700=ORIENTED_EDGE('',*,*,#699,.F.);
#701=ORIENTED_EDGE('',*,*,#676,.T.);
#702=EDGE_LOOP('',(#693,#694,#700,#701));
#703=FACE_BOUND('',#702,.T.);
#704=ADVANCED_FACE('',(#703),#692,.F.);
#705=CARTESIAN_POINT('',(4.062214919,7.469832797,8.632221194));
#706=DIRECTION('',(0.,1.,0.));
#707=DIRECTION('',(-0.866025404,0.,0.5));
#708=AXIS2_PLACEMENT_3D('',#705,#706,#707);
#709=PLANE('',#708);
#710=ORIENTED_EDGE('',*,*,#581,.T.);
#711=ORIENTED_EDGE('',*,*,#610,.T.);
#712=ORIENTED_EDGE('',*,*,#634,.T.);
#713=ORIENTED_EDGE('',*,*,#658,.T.);
#714=ORIENTED_EDGE('',*,*,#682,.T.);
#715=ORIENTED_EDGE('',*,*,#699,.T.);
#716=EDGE_LOOP('',(#710,#711,#712,#713,#714,#715));
#717=FACE_BOUND('',#716,.T.);
#718=ADVANCED_FACE('',(#717),#709,.T.);
#719=CARTESIAN_POINT('',(0.87677429,-3.029812319,9.457233653));
#720=DIRECTION('',(-0.500929969,0.00037291,0.865487739));
#721=DIRECTION('',(-0.865487799,-0.,-0.500930004));
#722=AXIS2_PLACEMENT_3D('',#719,#720,#721);
#723=PLANE('',#722);
#724=ORIENTED_EDGE('',*,*,#208,.T.);
#725=CARTESIAN_POINT('',(2.008843017,-4.728213445,10.113188069));
#726=DIRECTION('',(-0.865487799,-0.,-0.500930004));
#727=VECTOR('',#726,2.616024718);
#728=LINE('',#725,#727);
#729=EDGE_CURVE('',#196,#467,#728,.T.);
#730=ORIENTED_EDGE('',*,*,#729,.T.);
#731=ORIENTED_EDGE('',*,*,#471,.F.);
#732=CARTESIAN_POINT('',(2.008843028,-3.029530014,10.112456168));
#733=DIRECTION('',(-0.86548782,-0.000215827,-0.500929923));
#734=VECTOR('',#733,2.616024617);
#735=LINE('',#732,#734);
#736=EDGE_CURVE('',#204,#460,#735,.T.);
#737=ORIENTED_EDGE('',*,*,#736,.F.);
#738=EDGE_LOOP('',(#724,#730,#731,#737));
#739=FACE_BOUND('',#738,.T.);
#740=ADVANCED_FACE('',(#739),#723,.F.);
#741=CARTESIAN_POINT('',(-0.070604506,-3.029200687,10.876768178));
#742=DIRECTION('',(-0.000000006,-0.999999907,0.000430864));
#743=DIRECTION('',(0.499999965,0.000373136,0.866025343));
#744=AXIS2_PLACEMENT_3D('',#741,#742,#743);
#745=PLANE('',#744);
#746=ORIENTED_EDGE('',*,*,#537,.F.);
#747=ORIENTED_EDGE('',*,*,#554,.F.);
#748=ORIENTED_EDGE('',*,*,#736,.T.);
#749=ORIENTED_EDGE('',*,*,#514,.F.);
#750=EDGE_LOOP('',(#746,#747,#748,#749));
#751=FACE_BOUND('',#750,.T.);
#752=ADVANCED_FACE('',(#751),#745,.F.);
#753=CARTESIAN_POINT('',(-1.773647022,-3.029155083,10.982587774));
#754=DIRECTION('',(-0.999999423,-0.000000457,-0.001074169));
#755=DIRECTION('',(0.001074169,0.,-0.999999423));
#756=AXIS2_PLACEMENT_3D('',#753,#754,#755);
#757=PLANE('',#756);
#758=CARTESIAN_POINT('',(-1.775052059,-4.728213445,12.291331531));
#759=DIRECTION('',(0.001074169,0.,-0.999999423));
#760=VECTOR('',#759,2.6160249);
#761=LINE('',#758,#760);
#762=EDGE_CURVE('',#301,#445,#761,.T.);
#763=ORIENTED_EDGE('',*,*,#762,.F.);
#764=ORIENTED_EDGE('',*,*,#305,.F.);
#765=CARTESIAN_POINT('',(-1.775052048,-3.028591508,12.290599226));
#766=DIRECTION('',(0.001074169,-0.000430863,-0.99999933));
#767=VECTOR('',#766,2.616024657);
#768=LINE('',#765,#767);
#769=EDGE_CURVE('',#299,#382,#768,.T.);
#770=ORIENTED_EDGE('',*,*,#769,.T.);
#771=ORIENTED_EDGE('',*,*,#455,.T.);
#772=EDGE_LOOP('',(#763,#764,#770,#771));
#773=FACE_BOUND('',#772,.T.);
#774=ADVANCED_FACE('',(#773),#757,.T.);
#775=CARTESIAN_POINT('',(-0.070604506,-3.029200687,10.876768178));
#776=DIRECTION('',(-0.000000006,-0.999999907,0.000430864));
#777=DIRECTION('',(0.499999965,0.000373136,0.866025343));
#778=AXIS2_PLACEMENT_3D('',#775,#776,#777);
#779=PLANE('',#778);
#780=ORIENTED_EDGE('',*,*,#769,.F.);
#781=ORIENTED_EDGE('',*,*,#346,.F.);
#782=ORIENTED_EDGE('',*,*,#369,.F.);
#783=ORIENTED_EDGE('',*,*,#392,.F.);
#784=EDGE_LOOP('',(#780,#781,#782,#783));
#785=FACE_BOUND('',#784,.T.);
#786=ADVANCED_FACE('',(#785),#779,.F.);
#787=CARTESIAN_POINT('',(0.872559175,-3.028494734,12.515242687));
#788=DIRECTION('',(0.499069454,0.000373367,0.866561908));
#789=DIRECTION('',(-0.866561969,-0.,0.499069488));
#790=AXIS2_PLACEMENT_3D('',#787,#788,#789);
#791=PLANE('',#790);
#792=CARTESIAN_POINT('',(2.006032929,-4.728213445,11.863185975));
#793=DIRECTION('',(-0.866561969,-0.,0.499069488));
#794=VECTOR('',#793,2.616024717);
#795=LINE('',#792,#794);
#796=EDGE_CURVE('',#189,#308,#795,.T.);
#797=ORIENTED_EDGE('',*,*,#796,.F.);
#798=ORIENTED_EDGE('',*,*,#193,.F.);
#799=CARTESIAN_POINT('',(2.00603294,-3.028776004,11.862453749));
#800=DIRECTION('',(-0.866561989,0.000215036,0.499069407));
#801=VECTOR('',#800,2.616024657);
#802=LINE('',#799,#801);
#803=EDGE_CURVE('',#187,#276,#802,.T.);
#804=ORIENTED_EDGE('',*,*,#803,.T.);
#805=ORIENTED_EDGE('',*,*,#318,.T.);
#806=EDGE_LOOP('',(#797,#798,#804,#805));
#807=FACE_BOUND('',#806,.T.);
#808=ADVANCED_FACE('',(#807),#791,.T.);
#809=CARTESIAN_POINT('',(-0.070604506,-3.029200687,10.876768178));
#810=DIRECTION('',(-0.000000006,-0.999999907,0.000430864));
#811=DIRECTION('',(0.499999965,0.000373136,0.866025343));
#812=AXIS2_PLACEMENT_3D('',#809,#810,#811);
#813=PLANE('',#812);
#814=ORIENTED_EDGE('',*,*,#803,.F.);
#815=ORIENTED_EDGE('',*,*,#240,.F.);
#816=ORIENTED_EDGE('',*,*,#263,.F.);
#817=ORIENTED_EDGE('',*,*,#286,.F.);
#818=EDGE_LOOP('',(#814,#815,#816,#817));
#819=FACE_BOUND('',#818,.T.);
#820=ADVANCED_FACE('',(#819),#813,.F.);
#821=CARTESIAN_POINT('',(24.371792462,-4.728213445,1.717699041));
#822=DIRECTION('',(-0.,1.,0.));
#823=DIRECTION('',(-0.5,-0.,-0.866025404));
#824=AXIS2_PLACEMENT_3D('',#821,#822,#823);
#825=PLANE('',#824);
#826=CARTESIAN_POINT('',(1.706311272,-4.728213445,11.689605675));
#827=VERTEX_POINT('',#826);
#828=CARTESIAN_POINT('',(1.708565107,-4.728213445,10.286017548));
#829=VERTEX_POINT('',#828);
#830=CARTESIAN_POINT('',(1.706311272,-4.728213445,11.689605675));
#831=DIRECTION('',(0.001605764,0.,-0.999998711));
#832=VECTOR('',#831,1.403589936);
#833=LINE('',#830,#832);
#834=EDGE_CURVE('',#827,#829,#833,.T.);
#835=ORIENTED_EDGE('',*,*,#834,.T.);
#836=CARTESIAN_POINT('',(1.708565107,-4.728213445,10.286017548));
#837=DIRECTION('',(-0.865487799,-0.,-0.500930004));
#838=VECTOR('',#837,2.616131086);
#839=LINE('',#836,#838);
#840=EDGE_CURVE('',#829,#474,#839,.T.);
#841=ORIENTED_EDGE('',*,*,#840,.T.);
#842=ORIENTED_EDGE('',*,*,#479,.F.);
#843=ORIENTED_EDGE('',*,*,#729,.F.);
#844=ORIENTED_EDGE('',*,*,#201,.F.);
#845=ORIENTED_EDGE('',*,*,#796,.T.);
#846=ORIENTED_EDGE('',*,*,#313,.F.);
#847=ORIENTED_EDGE('',*,*,#762,.T.);
#848=ORIENTED_EDGE('',*,*,#450,.F.);
#849=CARTESIAN_POINT('',(-1.474866295,-4.728213445,12.118555088));
#850=VERTEX_POINT('',#849);
#851=CARTESIAN_POINT('',(-1.474866295,-4.728213445,12.118555088));
#852=DIRECTION('',(0.001074169,0.,-0.999999423));
#853=VECTOR('',#852,2.615918629);
#854=LINE('',#851,#853);
#855=EDGE_CURVE('',#850,#437,#854,.T.);
#856=ORIENTED_EDGE('',*,*,#855,.F.);
#857=CARTESIAN_POINT('',(-0.260450351,-4.728213445,12.82230103));
#858=VERTEX_POINT('',#857);
#859=CARTESIAN_POINT('',(-1.474866295,-4.728213445,12.118555088));
#860=DIRECTION('',(0.865221385,0.,0.501390023));
#861=VECTOR('',#860,1.403589839);
#862=LINE('',#859,#861);
#863=EDGE_CURVE('',#850,#858,#862,.T.);
#864=ORIENTED_EDGE('',*,*,#863,.T.);
#865=CARTESIAN_POINT('',(1.706311272,-4.728213445,11.689605675));
#866=DIRECTION('',(-0.866561969,-0.,0.499069488));
#867=VECTOR('',#866,2.269614515);
#868=LINE('',#865,#867);
#869=EDGE_CURVE('',#827,#858,#868,.T.);
#870=ORIENTED_EDGE('',*,*,#869,.F.);
#871=EDGE_LOOP('',(#835,#841,#842,#843,#844,#845,#846,#847,#848,#856,#864,#870));
#872=FACE_BOUND('',#871,.T.);
#873=ADVANCED_FACE('',(#872),#825,.F.);
#874=CARTESIAN_POINT('',(1.706033367,3.471223187,11.859171406));
#875=DIRECTION('',(-0.999998711,-0.000000686,-0.001605764));
#876=DIRECTION('',(0.001605764,0.,-0.999998711));
#877=AXIS2_PLACEMENT_3D('',#874,#875,#876);
#878=PLANE('',#877);
#879=CARTESIAN_POINT('',(1.706311262,-6.228213445,11.69025197));
#880=VERTEX_POINT('',#879);
#881=CARTESIAN_POINT('',(1.706311272,-4.728213445,11.689605675));
#882=DIRECTION('',(-0.000000006,-0.999999907,0.000430864));
#883=VECTOR('',#882,1.500000139);
#884=LINE('',#881,#883);
#885=EDGE_CURVE('',#827,#880,#884,.T.);
#886=ORIENTED_EDGE('',*,*,#885,.T.);
#887=CARTESIAN_POINT('',(1.708565097,-6.228213445,10.286663843));
#888=VERTEX_POINT('',#887);
#889=CARTESIAN_POINT('',(1.706311262,-6.228213445,11.69025197));
#890=DIRECTION('',(0.001605764,0.,-0.999998711));
#891=VECTOR('',#890,1.403589936);
#892=LINE('',#889,#891);
#893=EDGE_CURVE('',#880,#888,#892,.T.);
#894=ORIENTED_EDGE('',*,*,#893,.T.);
#895=CARTESIAN_POINT('',(1.708565107,-4.728213445,10.286017548));
#896=DIRECTION('',(-0.000000006,-0.999999907,0.000430864));
#897=VECTOR('',#896,1.500000139);
#898=LINE('',#895,#897);
#899=EDGE_CURVE('',#829,#888,#898,.T.);
#900=ORIENTED_EDGE('',*,*,#899,.F.);
#901=ORIENTED_EDGE('',*,*,#834,.F.);
#902=EDGE_LOOP('',(#886,#894,#900,#901));
#903=FACE_BOUND('',#902,.T.);
#904=ADVANCED_FACE('',(#903),#878,.F.);
#905=CARTESIAN_POINT('',(0.726495299,-3.029700446,9.716879975));
#906=DIRECTION('',(-0.500929969,0.00037291,0.865487739));
#907=DIRECTION('',(-0.865487799,-0.,-0.500930004));
#908=AXIS2_PLACEMENT_3D('',#905,#906,#907);
#909=PLANE('',#908);
#910=ORIENTED_EDGE('',*,*,#899,.T.);
#911=CARTESIAN_POINT('',(1.708565097,-6.228213445,10.286663843));
#912=DIRECTION('',(-0.865487799,-0.,-0.500930004));
#913=VECTOR('',#912,2.616131086);
#914=LINE('',#911,#913);
#915=EDGE_CURVE('',#888,#482,#914,.T.);
#916=ORIENTED_EDGE('',*,*,#915,.T.);
#917=ORIENTED_EDGE('',*,*,#487,.F.);
#918=ORIENTED_EDGE('',*,*,#840,.F.);
#919=EDGE_LOOP('',(#910,#916,#917,#918));
#920=FACE_BOUND('',#919,.T.);
#921=ADVANCED_FACE('',(#920),#909,.F.);
#922=CARTESIAN_POINT('',(-1.624635011,3.47129605,12.028232216));
#923=DIRECTION('',(0.501389988,-0.000372796,-0.865221325));
#924=DIRECTION('',(0.865221385,0.,0.501390023));
#925=AXIS2_PLACEMENT_3D('',#922,#923,#924);
#926=PLANE('',#925);
#927=CARTESIAN_POINT('',(-1.474866304,-6.228213445,12.119201384));
#928=VERTEX_POINT('',#927);
#929=CARTESIAN_POINT('',(-1.474866295,-4.728213445,12.118555088));
#930=DIRECTION('',(-0.000000006,-0.999999907,0.000430864));
#931=VECTOR('',#930,1.500000139);
#932=LINE('',#929,#931);
#933=EDGE_CURVE('',#850,#928,#932,.T.);
#934=ORIENTED_EDGE('',*,*,#933,.T.);
#935=CARTESIAN_POINT('',(-0.26045036,-6.228213445,12.822947325));
#936=VERTEX_POINT('',#935);
#937=CARTESIAN_POINT('',(-1.474866304,-6.228213445,12.119201384));
#938=DIRECTION('',(0.865221385,0.,0.501390023));
#939=VECTOR('',#938,1.403589839);
#940=LINE('',#937,#939);
#941=EDGE_CURVE('',#928,#936,#940,.T.);
#942=ORIENTED_EDGE('',*,*,#941,.T.);
#943=CARTESIAN_POINT('',(-0.260450351,-4.728213445,12.82230103));
#944=DIRECTION('',(-0.000000006,-0.999999907,0.000430864));
#945=VECTOR('',#944,1.500000139);
#946=LINE('',#943,#945);
#947=EDGE_CURVE('',#858,#936,#946,.T.);
#948=ORIENTED_EDGE('',*,*,#947,.F.);
#949=ORIENTED_EDGE('',*,*,#863,.F.);
#950=EDGE_LOOP('',(#934,#942,#948,#949));
#951=FACE_BOUND('',#950,.T.);
#952=ADVANCED_FACE('',(#951),#926,.F.);
#953=CARTESIAN_POINT('',(-1.473647195,-3.029154946,10.982910025));
#954=DIRECTION('',(-0.999999423,-0.000000457,-0.001074169));
#955=DIRECTION('',(0.001074169,0.,-0.999999423));
#956=AXIS2_PLACEMENT_3D('',#953,#954,#955);
#957=PLANE('',#956);
#958=CARTESIAN_POINT('',(-1.474866304,-6.228213445,12.119201384));
#959=DIRECTION('',(0.001074169,0.,-0.999999423));
#960=VECTOR('',#959,2.615918629);
#961=LINE('',#958,#960);
#962=EDGE_CURVE('',#928,#429,#961,.T.);
#963=ORIENTED_EDGE('',*,*,#962,.F.);
#964=ORIENTED_EDGE('',*,*,#933,.F.);
#965=ORIENTED_EDGE('',*,*,#855,.T.);
#966=ORIENTED_EDGE('',*,*,#442,.T.);
#967=EDGE_LOOP('',(#963,#964,#965,#966));
#968=FACE_BOUND('',#967,.T.);
#969=ADVANCED_FACE('',(#968),#957,.T.);
#970=CARTESIAN_POINT('',(0.722838339,-3.028606744,12.255274114));
#971=DIRECTION('',(0.499069454,0.000373367,0.866561908));
#972=DIRECTION('',(-0.866561969,-0.,0.499069488));
#973=AXIS2_PLACEMENT_3D('',#970,#971,#972);
#974=PLANE('',#973);
#975=CARTESIAN_POINT('',(1.706311262,-6.228213445,11.69025197));
#976=DIRECTION('',(-0.866561969,-0.,0.499069488));
#977=VECTOR('',#976,2.269614515);
#978=LINE('',#975,#977);
#979=EDGE_CURVE('',#880,#936,#978,.T.);
#980=ORIENTED_EDGE('',*,*,#979,.F.);
#981=ORIENTED_EDGE('',*,*,#885,.F.);
#982=ORIENTED_EDGE('',*,*,#869,.T.);
#983=ORIENTED_EDGE('',*,*,#947,.T.);
#984=EDGE_LOOP('',(#980,#981,#982,#983));
#985=FACE_BOUND('',#984,.T.);
#986=ADVANCED_FACE('',(#985),#974,.T.);
#987=CARTESIAN_POINT('',(0.872559175,-3.028494734,12.515242687));
#988=DIRECTION('',(0.499069454,0.000373367,0.866561908));
#989=DIRECTION('',(-0.866561969,-0.,0.499069488));
#990=AXIS2_PLACEMENT_3D('',#987,#988,#989);
#991=PLANE('',#990);
#992=CARTESIAN_POINT('',(-0.260914609,-6.228213445,13.169410388));
#993=VERTEX_POINT('',#992);
#994=CARTESIAN_POINT('',(-0.260915053,-8.62783977,13.170444217));
#995=VERTEX_POINT('',#994);
#996=CARTESIAN_POINT('',(-0.260914609,-6.228213445,13.169410388));
#997=CARTESIAN_POINT('',(-0.260914624,-8.62783977,13.1704443));
#998=B_SPLINE_CURVE_WITH_KNOTS('',1,(#996,#997),.UNSPECIFIED.,.F.,.F.,(2,2),(0.542372929,0.949089293),.UNSPECIFIED.);
#999=EDGE_CURVE('',#993,#995,#998,.T.);
#1000=ORIENTED_EDGE('',*,*,#999,.T.);
#1001=CARTESIAN_POINT('',(2.006033079,-8.628588801,11.864650974));
#1002=VERTEX_POINT('',#1001);
#1003=CARTESIAN_POINT('',(-0.26091491,-8.627839484,13.170444464));
#1004=DIRECTION('',(0.866561989,-0.000215036,-0.499069407));
#1005=VECTOR('',#1004,2.616132703);
#1006=LINE('',#1003,#1005);
#1007=EDGE_CURVE('',#995,#1002,#1006,.T.);
#1008=ORIENTED_EDGE('',*,*,#1007,.T.);
#1009=CARTESIAN_POINT('',(2.00603292,-6.228213445,11.86383227));
#1010=VERTEX_POINT('',#1009);
#1011=CARTESIAN_POINT('',(2.00603292,-6.228213445,11.86383227));
#1012=CARTESIAN_POINT('',(2.006032905,-8.628588708,11.864866505));
#1013=B_SPLINE_CURVE_WITH_KNOTS('',1,(#1011,#1012),.UNSPECIFIED.,.F.,.F.,(2,2),(0.050879115,0.457722417),.UNSPECIFIED.);
#1014=EDGE_CURVE('',#1010,#1002,#1013,.T.);
#1015=ORIENTED_EDGE('',*,*,#1014,.F.);
#1016=CARTESIAN_POINT('',(2.00603292,-6.228213445,11.86383227));
#1017=DIRECTION('',(-0.866561969,-0.,0.499069488));
#1018=VECTOR('',#1017,2.616024717);
#1019=LINE('',#1016,#1018);
#1020=EDGE_CURVE('',#1010,#993,#1019,.T.);
#1021=ORIENTED_EDGE('',*,*,#1020,.T.);
#1022=EDGE_LOOP('',(#1000,#1008,#1015,#1021));
#1023=FACE_BOUND('',#1022,.T.);
#1024=ADVANCED_FACE('',(#1023),#991,.T.);
#1025=CARTESIAN_POINT('',(-1.773647022,-3.029155083,10.982587774));
#1026=DIRECTION('',(-0.999999423,-0.000000457,-0.001074169));
#1027=DIRECTION('',(0.001074169,0.,-0.999999423));
#1028=AXIS2_PLACEMENT_3D('',#1025,#1026,#1027);
#1029=PLANE('',#1028);
#1030=ORIENTED_EDGE('',*,*,#426,.T.);
#1031=CARTESIAN_POINT('',(-1.775051852,-8.628404819,12.292796418));
#1032=VERTEX_POINT('',#1031);
#1033=CARTESIAN_POINT('',(-1.772242371,-8.629718091,9.676881738));
#1034=DIRECTION('',(-0.001074169,0.000430863,0.99999933));
#1035=VECTOR('',#1034,2.615916512);
#1036=LINE('',#1033,#1035);
#1037=EDGE_CURVE('',#414,#1032,#1036,.T.);
#1038=ORIENTED_EDGE('',*,*,#1037,.T.);
#1039=CARTESIAN_POINT('',(-1.775052068,-6.228213445,12.291977827));
#1040=VERTEX_POINT('',#1039);
#1041=CARTESIAN_POINT('',(-1.775052068,-6.228213445,12.291977827));
#1042=CARTESIAN_POINT('',(-1.775052083,-8.628404726,12.293011982));
#1043=B_SPLINE_CURVE_WITH_KNOTS('',1,(#1041,#1042),.UNSPECIFIED.,.F.,.F.,(2,2),(0.050879028,0.457691147),.UNSPECIFIED.);
#1044=EDGE_CURVE('',#1040,#1032,#1043,.T.);
#1045=ORIENTED_EDGE('',*,*,#1044,.F.);
#1046=CARTESIAN_POINT('',(-1.775052068,-6.228213445,12.291977827));
#1047=DIRECTION('',(0.001074169,0.,-0.999999423));
#1048=VECTOR('',#1047,2.6160249);
#1049=LINE('',#1046,#1048);
#1050=EDGE_CURVE('',#1040,#422,#1049,.T.);
#1051=ORIENTED_EDGE('',*,*,#1050,.T.);
#1052=EDGE_LOOP('',(#1030,#1038,#1045,#1051));
#1053=FACE_BOUND('',#1052,.T.);
#1054=ADVANCED_FACE('',(#1053),#1029,.T.);
#1055=CARTESIAN_POINT('',(0.87677429,-3.029812319,9.457233653));
#1056=DIRECTION('',(-0.500929969,0.00037291,0.865487739));
#1057=DIRECTION('',(-0.865487799,-0.,-0.500930004));
#1058=AXIS2_PLACEMENT_3D('',#1055,#1056,#1057);
#1059=PLANE('',#1058);
#1060=CARTESIAN_POINT('',(2.008843008,-6.228213445,10.113834364));
#1061=VERTEX_POINT('',#1060);
#1062=CARTESIAN_POINT('',(2.008656368,-8.62971556,10.114761069));
#1063=VERTEX_POINT('',#1062);
#1064=CARTESIAN_POINT('',(2.008843008,-6.228213445,10.113834364));
#1065=CARTESIAN_POINT('',(2.008842993,-8.629715514,10.114869084));
#1066=B_SPLINE_CURVE_WITH_KNOTS('',1,(#1064,#1065),.UNSPECIFIED.,.F.,.F.,(2,2),(0.542149784,0.949184071),.UNSPECIFIED.);
#1067=EDGE_CURVE('',#1061,#1063,#1066,.T.);
#1068=ORIENTED_EDGE('',*,*,#1067,.T.);
#1069=CARTESIAN_POINT('',(2.008656368,-8.629902358,10.114761149));
#1070=DIRECTION('',(-0.86548782,-0.000215827,-0.500929923));
#1071=VECTOR('',#1070,2.615809439);
#1072=LINE('',#1069,#1071);
#1073=EDGE_CURVE('',#1063,#407,#1072,.T.);
#1074=ORIENTED_EDGE('',*,*,#1073,.T.);
#1075=ORIENTED_EDGE('',*,*,#411,.F.);
#1076=CARTESIAN_POINT('',(2.008843008,-6.228213445,10.113834364));
#1077=DIRECTION('',(-0.865487799,-0.,-0.500930004));
#1078=VECTOR('',#1077,2.616024718);
#1079=LINE('',#1076,#1078);
#1080=EDGE_CURVE('',#1061,#405,#1079,.T.);
#1081=ORIENTED_EDGE('',*,*,#1080,.F.);
#1082=EDGE_LOOP('',(#1068,#1074,#1075,#1081));
#1083=FACE_BOUND('',#1082,.T.);
#1084=ADVANCED_FACE('',(#1083),#1059,.F.);
#1085=CARTESIAN_POINT('',(-1.775052008,3.471407889,12.287798613));
#1086=DIRECTION('',(0.501389988,-0.000372796,-0.865221325));
#1087=DIRECTION('',(0.865221385,0.,0.501390023));
#1088=AXIS2_PLACEMENT_3D('',#1085,#1086,#1087);
#1089=PLANE('',#1088);
#1090=ORIENTED_EDGE('',*,*,#1044,.T.);
#1091=CARTESIAN_POINT('',(-1.775145424,-8.628218123,12.292957811));
#1092=DIRECTION('',(0.865221405,0.000216025,0.501389942));
#1093=VECTOR('',#1092,1.750107469);
#1094=LINE('',#1091,#1093);
#1095=EDGE_CURVE('',#1032,#995,#1094,.T.);
#1096=ORIENTED_EDGE('',*,*,#1095,.T.);
#1097=ORIENTED_EDGE('',*,*,#999,.F.);
#1098=CARTESIAN_POINT('',(-1.775052068,-6.228213445,12.291977827));
#1099=DIRECTION('',(0.865221385,0.,0.501390023));
#1100=VECTOR('',#1099,1.750000041);
#1101=LINE('',#1098,#1100);
#1102=EDGE_CURVE('',#1040,#993,#1101,.T.);
#1103=ORIENTED_EDGE('',*,*,#1102,.F.);
#1104=EDGE_LOOP('',(#1090,#1096,#1097,#1103));
#1105=FACE_BOUND('',#1104,.T.);
#1106=ADVANCED_FACE('',(#1105),#1089,.F.);
#1107=CARTESIAN_POINT('',(2.00603298,3.471223393,11.859653136));
#1108=DIRECTION('',(-0.999998711,-0.000000686,-0.001605764));
#1109=DIRECTION('',(0.001605764,0.,-0.999998711));
#1110=AXIS2_PLACEMENT_3D('',#1107,#1108,#1109);
#1111=PLANE('',#1110);
#1112=ORIENTED_EDGE('',*,*,#1014,.T.);
#1113=CARTESIAN_POINT('',(2.006032565,-8.628775484,11.864651054));
#1114=DIRECTION('',(0.001605765,-0.000430863,-0.999998618));
#1115=VECTOR('',#1114,1.749892185);
#1116=LINE('',#1113,#1115);
#1117=EDGE_CURVE('',#1002,#1063,#1116,.T.);
#1118=ORIENTED_EDGE('',*,*,#1117,.T.);
#1119=ORIENTED_EDGE('',*,*,#1067,.F.);
#1120=CARTESIAN_POINT('',(2.00603292,-6.228213445,11.86383227));
#1121=DIRECTION('',(0.001605764,0.,-0.999998711));
#1122=VECTOR('',#1121,1.750000162);
#1123=LINE('',#1120,#1122);
#1124=EDGE_CURVE('',#1010,#1061,#1123,.T.);
#1125=ORIENTED_EDGE('',*,*,#1124,.F.);
#1126=EDGE_LOOP('',(#1112,#1118,#1119,#1125));
#1127=FACE_BOUND('',#1126,.T.);
#1128=ADVANCED_FACE('',(#1127),#1111,.F.);
#1129=CARTESIAN_POINT('',(4.260350074,-8.930165974,8.637531488));
#1130=DIRECTION('',(-0.000000006,-0.999999907,0.000430864));
#1131=DIRECTION('',(0.499999965,0.000373136,0.866025343));
#1132=AXIS2_PLACEMENT_3D('',#1129,#1130,#1131);
#1133=PLANE('',#1132);
#1134=CARTESIAN_POINT('',(1.706311252,-8.928850337,11.690984713));
#1135=VERTEX_POINT('',#1134);
#1136=CARTESIAN_POINT('',(-0.260450371,-8.928362287,12.823679857));
#1137=VERTEX_POINT('',#1136);
#1138=CARTESIAN_POINT('',(1.706311252,-8.928850337,11.690984713));
#1139=DIRECTION('',(-0.866561989,0.000215036,0.499069407));
#1140=VECTOR('',#1139,2.269614463);
#1141=LINE('',#1138,#1140);
#1142=EDGE_CURVE('',#1135,#1137,#1141,.T.);
#1143=ORIENTED_EDGE('',*,*,#1142,.T.);
#1144=CARTESIAN_POINT('',(-1.474866315,-8.928665498,12.119934047));
#1145=VERTEX_POINT('',#1144);
#1146=CARTESIAN_POINT('',(-0.260450371,-8.928362287,12.823679857));
#1147=DIRECTION('',(-0.865221405,-0.000216025,-0.501389942));
#1148=VECTOR('',#1147,1.403589806);
#1149=LINE('',#1146,#1148);
#1150=EDGE_CURVE('',#1137,#1145,#1149,.T.);
#1151=ORIENTED_EDGE('',*,*,#1150,.T.);
#1152=CARTESIAN_POINT('',(-1.472428365,-8.929643392,9.850321104));
#1153=VERTEX_POINT('',#1152);
#1154=CARTESIAN_POINT('',(-1.474866315,-8.928665498,12.119934047));
#1155=DIRECTION('',(0.001074169,-0.000430863,-0.99999933));
#1156=VECTOR('',#1155,2.269614463);
#1157=LINE('',#1154,#1156);
#1158=EDGE_CURVE('',#1145,#1153,#1157,.T.);
#1159=ORIENTED_EDGE('',*,*,#1158,.T.);
#1160=CARTESIAN_POINT('',(-0.255758586,-8.929944936,9.150479049));
#1161=VERTEX_POINT('',#1160);
#1162=CARTESIAN_POINT('',(-1.472428365,-8.929643392,9.850321104));
#1163=DIRECTION('',(0.86682717,-0.000214838,-0.498608676));
#1164=VECTOR('',#1163,1.403589806);
#1165=LINE('',#1162,#1164);
#1166=EDGE_CURVE('',#1153,#1161,#1165,.T.);
#1167=ORIENTED_EDGE('',*,*,#1166,.T.);
#1168=CARTESIAN_POINT('',(1.708565087,-8.929455092,10.287396847));
#1169=VERTEX_POINT('',#1168);
#1170=CARTESIAN_POINT('',(-0.255758586,-8.929944936,9.150479049));
#1171=DIRECTION('',(0.86548782,0.000215827,0.500929923));
#1172=VECTOR('',#1171,2.269614463);
#1173=LINE('',#1170,#1172);
#1174=EDGE_CURVE('',#1161,#1169,#1173,.T.);
#1175=ORIENTED_EDGE('',*,*,#1174,.T.);
#1176=CARTESIAN_POINT('',(1.708565087,-8.929455092,10.287396847));
#1177=DIRECTION('',(-0.001605765,0.000430863,0.999998618));
#1178=VECTOR('',#1177,1.403589806);
#1179=LINE('',#1176,#1178);
#1180=EDGE_CURVE('',#1169,#1135,#1179,.T.);
#1181=ORIENTED_EDGE('',*,*,#1180,.T.);
#1182=EDGE_LOOP('',(#1143,#1151,#1159,#1167,#1175,#1181));
#1183=FACE_BOUND('',#1182,.T.);
#1184=ADVANCED_FACE('',(#1183),#1133,.T.);
#1185=CARTESIAN_POINT('',(12.237272993,-6.228213445,8.723567123));
#1186=DIRECTION('',(-0.,1.,0.));
#1187=DIRECTION('',(-0.5,-0.,-0.866025404));
#1188=AXIS2_PLACEMENT_3D('',#1185,#1186,#1187);
#1189=PLANE('',#1188);
#1190=ORIENTED_EDGE('',*,*,#941,.F.);
#1191=ORIENTED_EDGE('',*,*,#962,.T.);
#1192=ORIENTED_EDGE('',*,*,#434,.T.);
#1193=ORIENTED_EDGE('',*,*,#1050,.F.);
#1194=ORIENTED_EDGE('',*,*,#1102,.T.);
#1195=ORIENTED_EDGE('',*,*,#1020,.F.);
#1196=ORIENTED_EDGE('',*,*,#1124,.T.);
#1197=ORIENTED_EDGE('',*,*,#1080,.T.);
#1198=ORIENTED_EDGE('',*,*,#493,.T.);
#1199=ORIENTED_EDGE('',*,*,#915,.F.);
#1200=ORIENTED_EDGE('',*,*,#893,.F.);
#1201=ORIENTED_EDGE('',*,*,#979,.T.);
#1202=EDGE_LOOP('',(#1190,#1191,#1192,#1193,#1194,#1195,#1196,#1197,#1198,#1199,#1200,#1201));
#1203=FACE_BOUND('',#1202,.T.);
#1204=ADVANCED_FACE('',(#1203),#1189,.T.);
#1205=CARTESIAN_POINT('',(4.944755949,-8.929653953,9.82590328));
#1206=DIRECTION('',(-0.352895391,0.706842705,-0.613056468));
#1207=DIRECTION('',(-0.866561989,0.000215036,0.499069407));
#1208=AXIS2_PLACEMENT_3D('',#1205,#1206,#1207);
#1209=PLANE('',#1208);
#1210=CARTESIAN_POINT('',(-0.260450371,-8.928362287,12.823679857));
#1211=DIRECTION('',(-0.001012982,0.654921908,0.755695884));
#1212=VECTOR('',#1211,0.45886765);
#1213=LINE('',#1210,#1212);
#1214=EDGE_CURVE('',#1137,#995,#1213,.T.);
#1215=ORIENTED_EDGE('',*,*,#1214,.F.);
#1216=ORIENTED_EDGE('',*,*,#1142,.F.);
#1217=CARTESIAN_POINT('',(2.006166286,-8.628642045,11.864512907));
#1218=DIRECTION('',(-0.654103616,-0.654874212,-0.378534312));
#1219=VECTOR('',#1218,0.458421307);
#1220=LINE('',#1217,#1219);
#1221=EDGE_CURVE('',#1002,#1135,#1220,.T.);
#1222=ORIENTED_EDGE('',*,*,#1221,.F.);
#1223=ORIENTED_EDGE('',*,*,#1007,.F.);
#1224=EDGE_LOOP('',(#1215,#1216,#1222,#1223));
#1225=FACE_BOUND('',#1224,.T.);
#1226=ADVANCED_FACE('',(#1225),#1209,.F.);
#1227=CARTESIAN_POINT('',(1.711220958,-8.930167722,8.633438182));
#1228=DIRECTION('',(0.707105865,-0.707106231,0.001440113));
#1229=DIRECTION('',(0.001605765,-0.000430863,-0.999998618));
#1230=AXIS2_PLACEMENT_3D('',#1227,#1228,#1229);
#1231=PLANE('',#1230);
#1232=ORIENTED_EDGE('',*,*,#1221,.T.);
#1233=ORIENTED_EDGE('',*,*,#1180,.F.);
#1234=CARTESIAN_POINT('',(2.008603287,-8.629769018,10.114576213));
#1235=DIRECTION('',(-0.655202646,-0.654433696,0.377393733));
#1236=VECTOR('',#1235,0.457931912);
#1237=LINE('',#1234,#1236);
#1238=EDGE_CURVE('',#1063,#1169,#1237,.T.);
#1239=ORIENTED_EDGE('',*,*,#1238,.F.);
#1240=ORIENTED_EDGE('',*,*,#1117,.F.);
#1241=EDGE_LOOP('',(#1232,#1233,#1239,#1240));
#1242=FACE_BOUND('',#1241,.T.);
#1243=ADVANCED_FACE('',(#1242),#1231,.T.);
#1244=CARTESIAN_POINT('',(1.307850152,-8.92797072,13.732499384));
#1245=DIRECTION('',(-0.354536265,-0.706843109,0.612108532));
#1246=DIRECTION('',(0.865221405,0.000216025,0.501389942));
#1247=AXIS2_PLACEMENT_3D('',#1244,#1245,#1246);
#1248=PLANE('',#1247);
#1249=ORIENTED_EDGE('',*,*,#1214,.T.);
#1250=ORIENTED_EDGE('',*,*,#1095,.F.);
#1251=CARTESIAN_POINT('',(-1.474866315,-8.928665498,12.119934047));
#1252=DIRECTION('',(-0.655116461,0.654873464,0.376779999));
#1253=VECTOR('',#1252,0.458420323);
#1254=LINE('',#1251,#1253);
#1255=EDGE_CURVE('',#1145,#1032,#1254,.T.);
#1256=ORIENTED_EDGE('',*,*,#1255,.F.);
#1257=ORIENTED_EDGE('',*,*,#1150,.F.);
#1258=EDGE_LOOP('',(#1249,#1250,#1256,#1257));
#1259=FACE_BOUND('',#1258,.T.);
#1260=ADVANCED_FACE('',(#1259),#1248,.T.);
#1261=CARTESIAN_POINT('',(0.876774261,-8.629811892,9.459215625));
#1262=DIRECTION('',(0.354210974,-0.707370403,-0.611687583));
#1263=DIRECTION('',(0.86548782,0.000215827,0.500929923));
#1264=AXIS2_PLACEMENT_3D('',#1261,#1262,#1263);
#1265=PLANE('',#1264);
#1266=ORIENTED_EDGE('',*,*,#1238,.T.);
#1267=ORIENTED_EDGE('',*,*,#1174,.F.);
#1268=CARTESIAN_POINT('',(-0.255295054,-8.630467166,8.804424087));
#1269=DIRECTION('',(-0.001012857,-0.654385317,0.756160585));
#1270=VECTOR('',#1269,0.457647447);
#1271=LINE('',#1268,#1270);
#1272=EDGE_CURVE('',#407,#1161,#1271,.T.);
#1273=ORIENTED_EDGE('',*,*,#1272,.F.);
#1274=ORIENTED_EDGE('',*,*,#1073,.F.);
#1275=EDGE_LOOP('',(#1266,#1267,#1273,#1274));
#1276=FACE_BOUND('',#1275,.T.);
#1277=ADVANCED_FACE('',(#1276),#1265,.T.);
#1278=CARTESIAN_POINT('',(-1.77364705,-8.629154656,10.984569746));
#1279=DIRECTION('',(0.707106378,0.707107038,0.000454886));
#1280=DIRECTION('',(-0.001074169,0.000430863,0.99999933));
#1281=AXIS2_PLACEMENT_3D('',#1278,#1279,#1280);
#1282=PLANE('',#1281);
#1283=ORIENTED_EDGE('',*,*,#1255,.T.);
#1284=ORIENTED_EDGE('',*,*,#1037,.F.);
#1285=CARTESIAN_POINT('',(-1.472428365,-8.929643392,9.850321104));
#1286=DIRECTION('',(-0.654189652,0.654432949,-0.379148276));
#1287=VECTOR('',#1286,0.457930977);
#1288=LINE('',#1285,#1287);
#1289=EDGE_CURVE('',#1153,#414,#1288,.T.);
#1290=ORIENTED_EDGE('',*,*,#1289,.F.);
#1291=ORIENTED_EDGE('',*,*,#1158,.F.);
#1292=EDGE_LOOP('',(#1283,#1284,#1290,#1291));
#1293=FACE_BOUND('',#1292,.T.);
#1294=ADVANCED_FACE('',(#1293),#1282,.F.);
#1295=CARTESIAN_POINT('',(-0.255294477,-8.630094196,8.803993111));
#1296=DIRECTION('',(-0.352569613,-0.707370807,-0.612634646));
#1297=DIRECTION('',(0.86682717,-0.000214838,-0.498608676));
#1298=AXIS2_PLACEMENT_3D('',#1295,#1296,#1297);
#1299=PLANE('',#1298);
#1300=ORIENTED_EDGE('',*,*,#1272,.T.);
#1301=ORIENTED_EDGE('',*,*,#1166,.F.);
#1302=ORIENTED_EDGE('',*,*,#1289,.T.);
#1303=ORIENTED_EDGE('',*,*,#419,.F.);
#1304=EDGE_LOOP('',(#1300,#1301,#1302,#1303));
#1305=FACE_BOUND('',#1304,.T.);
#1306=ADVANCED_FACE('',(#1305),#1299,.T.);
#1307=CLOSED_SHELL('',(#180,#223,#246,#269,#292,#329,#352,#375,#398,#497,#520,#543,#560,#591,#615,#639,#663,#687,#704,#718,#740,#752,#774,#786,#808,#820,
#873,#904,#921,#952,#969,#986,#1024,#1054,#1084,#1106,#1128,#1184,#1204,#1226,#1243,#1260,#1277,#1294,#1306));
#1308=MANIFOLD_SOLID_BREP('Solid 1929',#1307);
#26=STYLED_ITEM('',(),#1308);
#16=SHAPE_REPRESENTATION('root',(#15),#10);
#17=ADVANCED_BREP_SHAPE_REPRESENTATION('root',(#1308),#10);
#1316=SHAPE_REPRESENTATION_RELATIONSHIP('','',#16,#17);
#1317=APPLICATION_CONTEXT('configuration controlled 3D design of mechanical parts and assemblies');
#1318=APPLICATION_PROTOCOL_DEFINITION('international standard','configuration_control_3d_design_ed2_mim',2004,#1317);
#1319=PRODUCT_CONTEXT('',#1317,'mechanical');
#1320=PRODUCT_DEFINITION_CONTEXT('part definition',#1317,'design');
#24=PRODUCT('root','root','',(#1319));
#1321=PRODUCT_RELATED_PRODUCT_CATEGORY('part','',(#24));
#1322=PRODUCT_DEFINITION_FORMATION_WITH_SPECIFIED_SOURCE('','',#24,.NOT_KNOWN.);
#25=PRODUCT_DEFINITION('design','',#1322,#1320);
#23=PRODUCT_DEFINITION_SHAPE('','',#25);
#1323=SHAPE_DEFINITION_REPRESENTATION(#23,#16);
#11=DRAUGHTING_MODEL('',(),#10);
#1=MECHANICAL_DESIGN_GEOMETRIC_PRESENTATION_REPRESENTATION('',(#26),#10);
ENDSEC;
END-ISO-10303-21;
