ISO-10303-21;
HEADER;

/* File generated by HOOPS Exchange Version 25.8.0 */

FILE_DESCRIPTION(('HOOPS Exchange Step'),'2;1');

FILE_NAME('/Volumes/Primary/Projects/THQWGD001/step/THQWGD001C/THQWGD001C_spacer.stp',
'2026-05-24T03:52:22-15:00',
('hayashi'),
('Unknown organisation'),
'HOOPS Exchange 2025.8',
'HOOPS Exchange',
'Unknown authorisation');

FILE_SCHEMA( ('AP203_CONFIGURATION_CONTROLLED_3D_DESIGN_OF_MECHANICAL_PARTS_AND_ASSEMBLIES_MIM_LF') );

ENDSEC;

DATA;
#3=(NAMED_UNIT(*)PLANE_ANGLE_UNIT()SI_UNIT($,.RADIAN.));
#4=PLANE_ANGLE_MEASURE_WITH_UNIT(PLANE_ANGLE_MEASURE(0.0174532925),#3);
#5=(CONVERSION_BASED_UNIT('DEGREE',#4)NAMED_UNIT(#6)PLANE_ANGLE_UNIT());
#6=DIMENSIONAL_EXPONENTS(0.,0.,0.,0.,0.,0.,0.);
#7=(NAMED_UNIT(*)SI_UNIT($,.STERADIAN.)SOLID_ANGLE_UNIT());
#8=(LENGTH_UNIT()NAMED_UNIT(*)SI_UNIT(.MILLI.,.METRE.));
#9=UNCERTAINTY_MEASURE_WITH_UNIT(LENGTH_MEASURE(1.000000E-05),#8,'DISTANCE_ACCURACY_VALUE','Maximum Tolerance applied to model');
#10=(GEOMETRIC_REPRESENTATION_CONTEXT(3)GLOBAL_UNCERTAINTY_ASSIGNED_CONTEXT((#9))GLOBAL_UNIT_ASSIGNED_CONTEXT((#8,#5,#7))REPRESENTATION_CONTEXT('','root'));
#12=CARTESIAN_POINT('',(0.,0.,0.));
#13=DIRECTION('',(0.,0.,1.));
#14=DIRECTION('',(1.,0.,0.));
#15=AXIS2_PLACEMENT_3D('TS3D_PRODUCT_CSYS',#12,#13,#14);
#27=CARTESIAN_POINT('',(1.499601053,-3.028535207,35.954240214));
#28=DIRECTION('',(-0.,-1.,0.));
#29=DIRECTION('',(0.,-0.,-1.));
#30=AXIS2_PLACEMENT_3D('',#27,#28,#29);
#31=PLANE('',#30);
#32=CARTESIAN_POINT('',(-0.000398947,-3.028535207,6.254240214));
#33=VERTEX_POINT('',#32);
#34=CARTESIAN_POINT('',(-4.700398947,-3.028535207,10.954240214));
#35=VERTEX_POINT('',#34);
#36=CARTESIAN_POINT('',(-0.000398947,-3.028535207,10.954240214));
#37=DIRECTION('',(-0.,-1.,0.));
#38=DIRECTION('',(-1.,0.,-0.));
#39=AXIS2_PLACEMENT_3D('',#36,#37,#38);
#40=CIRCLE('',#39,4.7);
#41=EDGE_CURVE('',#33,#35,#40,.T.);
#42=ORIENTED_EDGE('',*,*,#41,.F.);
#43=CARTESIAN_POINT('',(-0.000398947,-3.028535207,10.954240214));
#44=DIRECTION('',(-0.,-1.,0.));
#45=DIRECTION('',(-1.,0.,-0.));
#46=AXIS2_PLACEMENT_3D('',#43,#44,#45);
#47=CIRCLE('',#46,4.7);
#48=EDGE_CURVE('',#35,#33,#47,.T.);
#49=ORIENTED_EDGE('',*,*,#48,.F.);
#50=EDGE_LOOP('',(#42,#49));
#51=FACE_BOUND('',#50,.T.);
#52=CARTESIAN_POINT('',(2.20174805,-3.028535207,10.029240214));
#53=VERTEX_POINT('',#52);
#54=CARTESIAN_POINT('',(-0.300398947,-3.028535207,8.584624972));
#55=VERTEX_POINT('',#54);
#56=CARTESIAN_POINT('',(2.20174805,-3.028535207,10.029240214));
#57=DIRECTION('',(-0.866025404,-0.,-0.5));
#58=VECTOR('',#57,2.889230485);
#59=LINE('',#56,#58);
#60=EDGE_CURVE('',#53,#55,#59,.T.);
#61=ORIENTED_EDGE('',*,*,#60,.F.);
#62=CARTESIAN_POINT('',(2.20174805,-3.028535207,11.879240214));
#63=VERTEX_POINT('',#62);
#64=CARTESIAN_POINT('',(2.20174805,-3.028535207,11.879240214));
#65=DIRECTION('',(0.,-0.,-1.));
#66=VECTOR('',#65,1.85);
#67=LINE('',#64,#66);
#68=EDGE_CURVE('',#63,#53,#67,.T.);
#69=ORIENTED_EDGE('',*,*,#68,.F.);
#70=CARTESIAN_POINT('',(-0.300398947,-3.028535207,13.323855456));
#71=VERTEX_POINT('',#70);
#72=CARTESIAN_POINT('',(2.20174805,-3.028535207,11.879240214));
#73=DIRECTION('',(-0.866025404,0.,0.5));
#74=VECTOR('',#73,2.889230485);
#75=LINE('',#72,#74);
#76=EDGE_CURVE('',#63,#71,#75,.T.);
#77=ORIENTED_EDGE('',*,*,#76,.T.);
#78=CARTESIAN_POINT('',(-1.902545944,-3.028535207,12.398855456));
#79=VERTEX_POINT('',#78);
#80=CARTESIAN_POINT('',(-1.902545944,-3.028535207,12.398855456));
#81=DIRECTION('',(0.866025404,-0.,0.5));
#82=VECTOR('',#81,1.85);
#83=LINE('',#80,#82);
#84=EDGE_CURVE('',#79,#71,#83,.T.);
#85=ORIENTED_EDGE('',*,*,#84,.F.);
#86=CARTESIAN_POINT('',(-1.902545944,-3.028535207,9.509624972));
#87=VERTEX_POINT('',#86);
#88=CARTESIAN_POINT('',(-1.902545944,-3.028535207,12.398855456));
#89=DIRECTION('',(0.,-0.,-1.));
#90=VECTOR('',#89,2.889230485);
#91=LINE('',#88,#90);
#92=EDGE_CURVE('',#79,#87,#91,.T.);
#93=ORIENTED_EDGE('',*,*,#92,.T.);
#94=CARTESIAN_POINT('',(-0.300398947,-3.028535207,8.584624972));
#95=DIRECTION('',(-0.866025404,0.,0.5));
#96=VECTOR('',#95,1.85);
#97=LINE('',#94,#96);
#98=EDGE_CURVE('',#55,#87,#97,.T.);
#99=ORIENTED_EDGE('',*,*,#98,.F.);
#100=EDGE_LOOP('',(#61,#69,#77,#85,#93,#99));
#101=FACE_BOUND('',#100,.T.);
#102=ADVANCED_FACE('',(#51,#101),#31,.F.);
#103=CARTESIAN_POINT('',(-0.000398947,-3.028535207,10.954240214));
#104=DIRECTION('',(-0.,-1.,0.));
#105=DIRECTION('',(0.,-0.,-1.));
#106=AXIS2_PLACEMENT_3D('',#103,#104,#105);
#107=CYLINDRICAL_SURFACE('',#106,4.7);
#108=CARTESIAN_POINT('',(-0.000398947,-3.528535207,6.254240214));
#109=VERTEX_POINT('',#108);
#110=CARTESIAN_POINT('',(-0.000398947,-3.528535207,6.254240214));
#111=DIRECTION('',(0.,1.,-0.));
#112=VECTOR('',#111,0.5);
#113=LINE('',#110,#112);
#114=EDGE_CURVE('',#109,#33,#113,.T.);
#115=ORIENTED_EDGE('',*,*,#114,.T.);
#116=ORIENTED_EDGE('',*,*,#41,.T.);
#117=ORIENTED_EDGE('',*,*,#48,.T.);
#118=ORIENTED_EDGE('',*,*,#114,.F.);
#119=CARTESIAN_POINT('',(-4.700398947,-3.528535207,10.954240214));
#120=VERTEX_POINT('',#119);
#121=CARTESIAN_POINT('',(-0.000398947,-3.528535207,10.954240214));
#122=DIRECTION('',(-0.,-1.,0.));
#123=DIRECTION('',(-1.,0.,-0.));
#124=AXIS2_PLACEMENT_3D('',#121,#122,#123);
#125=CIRCLE('',#124,4.7);
#126=EDGE_CURVE('',#120,#109,#125,.T.);
#127=ORIENTED_EDGE('',*,*,#126,.F.);
#128=CARTESIAN_POINT('',(-0.000398947,-3.528535207,10.954240214));
#129=DIRECTION('',(-0.,-1.,0.));
#130=DIRECTION('',(-1.,0.,-0.));
#131=AXIS2_PLACEMENT_3D('',#128,#129,#130);
#132=CIRCLE('',#131,4.7);
#133=EDGE_CURVE('',#109,#120,#132,.T.);
#134=ORIENTED_EDGE('',*,*,#133,.F.);
#135=EDGE_LOOP('',(#115,#116,#117,#118,#127,#134));
#136=FACE_BOUND('',#135,.T.);
#137=ADVANCED_FACE('',(#136),#107,.T.);
#138=CARTESIAN_POINT('',(2.20174805,1.397162611,-1.057631812));
#139=DIRECTION('',(-1.,0.,-0.));
#140=DIRECTION('',(0.,1.,-0.));
#141=AXIS2_PLACEMENT_3D('',#138,#139,#140);
#142=PLANE('',#141);
#143=ORIENTED_EDGE('',*,*,#68,.T.);
#144=CARTESIAN_POINT('',(2.20174805,-8.228535207,10.029240214));
#145=VERTEX_POINT('',#144);
#146=CARTESIAN_POINT('',(2.20174805,-8.228535207,10.029240214));
#147=DIRECTION('',(0.,1.,-0.));
#148=VECTOR('',#147,5.2);
#149=LINE('',#146,#148);
#150=EDGE_CURVE('',#145,#53,#149,.T.);
#151=ORIENTED_EDGE('',*,*,#150,.F.);
#152=CARTESIAN_POINT('',(2.20174805,-8.228535207,11.879240214));
#153=VERTEX_POINT('',#152);
#154=CARTESIAN_POINT('',(2.20174805,-8.228535207,10.029240214));
#155=DIRECTION('',(-0.,0.,1.));
#156=VECTOR('',#155,1.85);
#157=LINE('',#154,#156);
#158=EDGE_CURVE('',#145,#153,#157,.T.);
#159=ORIENTED_EDGE('',*,*,#158,.T.);
#160=CARTESIAN_POINT('',(2.20174805,-8.228535207,11.879240214));
#161=DIRECTION('',(0.,1.,-0.));
#162=VECTOR('',#161,5.2);
#163=LINE('',#160,#162);
#164=EDGE_CURVE('',#153,#63,#163,.T.);
#165=ORIENTED_EDGE('',*,*,#164,.T.);
#166=EDGE_LOOP('',(#143,#151,#159,#165));
#167=FACE_BOUND('',#166,.T.);
#168=ADVANCED_FACE('',(#167),#142,.T.);
#169=CARTESIAN_POINT('',(-1.902545944,-10.028535207,10.954240214));
#170=DIRECTION('',(1.,0.,0.));
#171=DIRECTION('',(-0.,0.,1.));
#172=AXIS2_PLACEMENT_3D('',#169,#170,#171);
#173=PLANE('',#172);
#174=CARTESIAN_POINT('',(-1.902545944,-4.728535207,12.398855456));
#175=VERTEX_POINT('',#174);
#176=CARTESIAN_POINT('',(-1.902545944,-4.728535207,12.398855456));
#177=DIRECTION('',(0.,1.,-0.));
#178=VECTOR('',#177,1.7);
#179=LINE('',#176,#178);
#180=EDGE_CURVE('',#175,#79,#179,.T.);
#181=ORIENTED_EDGE('',*,*,#180,.F.);
#182=CARTESIAN_POINT('',(-1.902545944,-4.729103012,9.509624972));
#183=VERTEX_POINT('',#182);
#184=CARTESIAN_POINT('',(-1.902545944,-4.728535207,12.398855456));
#185=DIRECTION('',(0.,-0.,-1.));
#186=VECTOR('',#185,2.889230485);
#187=LINE('',#184,#186);
#188=EDGE_CURVE('',#175,#183,#187,.T.);
#189=ORIENTED_EDGE('',*,*,#188,.T.);
#190=CARTESIAN_POINT('',(-1.902545944,-4.729103012,9.509624972));
#191=DIRECTION('',(0.,1.,-0.));
#192=VECTOR('',#191,1.700567805);
#193=LINE('',#190,#192);
#194=EDGE_CURVE('',#183,#87,#193,.T.);
#195=ORIENTED_EDGE('',*,*,#194,.T.);
#196=ORIENTED_EDGE('',*,*,#92,.F.);
#197=EDGE_LOOP('',(#181,#189,#195,#196));
#198=FACE_BOUND('',#197,.T.);
#199=ADVANCED_FACE('',(#198),#173,.T.);
#200=CARTESIAN_POINT('',(1.499601053,-8.428535207,35.954240214));
#201=DIRECTION('',(-0.,-1.,0.));
#202=DIRECTION('',(0.,-0.,-1.));
#203=AXIS2_PLACEMENT_3D('',#200,#201,#202);
#204=PLANE('',#203);
#205=CARTESIAN_POINT('',(-0.300398947,-8.428535207,8.353684864));
#206=VERTEX_POINT('',#205);
#207=CARTESIAN_POINT('',(-2.102545944,-8.428535207,9.394154918));
#208=VERTEX_POINT('',#207);
#209=CARTESIAN_POINT('',(-0.300398947,-8.428535207,8.353684864));
#210=DIRECTION('',(-0.866025404,0.,0.5));
#211=VECTOR('',#210,2.080940108);
#212=LINE('',#209,#211);
#213=EDGE_CURVE('',#206,#208,#212,.T.);
#214=ORIENTED_EDGE('',*,*,#213,.T.);
#215=CARTESIAN_POINT('',(-2.102545944,-8.428535207,12.51432551));
#216=VERTEX_POINT('',#215);
#217=CARTESIAN_POINT('',(-2.102545944,-8.428535207,9.394154918));
#218=DIRECTION('',(-0.,0.,1.));
#219=VECTOR('',#218,3.120170592);
#220=LINE('',#217,#219);
#221=EDGE_CURVE('',#208,#216,#220,.T.);
#222=ORIENTED_EDGE('',*,*,#221,.T.);
#223=CARTESIAN_POINT('',(-0.300398947,-8.428535207,13.554795564));
#224=VERTEX_POINT('',#223);
#225=CARTESIAN_POINT('',(-2.102545944,-8.428535207,12.51432551));
#226=DIRECTION('',(0.866025404,-0.,0.5));
#227=VECTOR('',#226,2.080940108);
#228=LINE('',#225,#227);
#229=EDGE_CURVE('',#216,#224,#228,.T.);
#230=ORIENTED_EDGE('',*,*,#229,.T.);
#231=CARTESIAN_POINT('',(2.40174805,-8.428535207,11.994710268));
#232=VERTEX_POINT('',#231);
#233=CARTESIAN_POINT('',(-0.300398947,-8.428535207,13.554795564));
#234=DIRECTION('',(0.866025404,-0.,-0.5));
#235=VECTOR('',#234,3.120170592);
#236=LINE('',#233,#235);
#237=EDGE_CURVE('',#224,#232,#236,.T.);
#238=ORIENTED_EDGE('',*,*,#237,.T.);
#239=CARTESIAN_POINT('',(2.40174805,-8.428535207,9.91377016));
#240=VERTEX_POINT('',#239);
#241=CARTESIAN_POINT('',(2.40174805,-8.428535207,11.994710268));
#242=DIRECTION('',(0.,-0.,-1.));
#243=VECTOR('',#242,2.080940108);
#244=LINE('',#241,#243);
#245=EDGE_CURVE('',#232,#240,#244,.T.);
#246=ORIENTED_EDGE('',*,*,#245,.T.);
#247=CARTESIAN_POINT('',(2.40174805,-8.428535207,9.91377016));
#248=DIRECTION('',(-0.866025404,0.,-0.5));
#249=VECTOR('',#248,3.120170592);
#250=LINE('',#247,#249);
#251=EDGE_CURVE('',#240,#206,#250,.T.);
#252=ORIENTED_EDGE('',*,*,#251,.T.);
#253=EDGE_LOOP('',(#214,#222,#230,#238,#246,#252));
#254=FACE_BOUND('',#253,.T.);
#255=CARTESIAN_POINT('',(3.578890374,-8.428535207,10.954240214));
#256=VERTEX_POINT('',#255);
#257=CARTESIAN_POINT('',(-0.000398947,-8.428535207,10.954240214));
#258=DIRECTION('',(-0.,-1.,0.));
#259=DIRECTION('',(1.,-0.,0.));
#260=AXIS2_PLACEMENT_3D('',#257,#258,#259);
#261=CIRCLE('',#260,3.579289322);
#262=EDGE_CURVE('',#256,#256,#261,.T.);
#263=ORIENTED_EDGE('',*,*,#262,.T.);
#264=EDGE_LOOP('',(#263));
#265=FACE_BOUND('',#264,.T.);
#266=ADVANCED_FACE('',(#254,#265),#204,.T.);
#267=CARTESIAN_POINT('',(-0.000398947,-9.028535207,10.954240214));
#268=DIRECTION('',(0.,1.,-0.));
#269=DIRECTION('',(1.,-0.,0.));
#270=AXIS2_PLACEMENT_3D('',#267,#268,#269);
#271=CYLINDRICAL_SURFACE('',#270,3.9);
#272=CARTESIAN_POINT('',(3.899601053,-3.528535207,10.954240214));
#273=VERTEX_POINT('',#272);
#274=CARTESIAN_POINT('',(3.899601053,-8.107824529,10.954240214));
#275=VERTEX_POINT('',#274);
#276=CARTESIAN_POINT('',(3.899601053,-3.528535207,10.954240214));
#277=DIRECTION('',(-0.,-1.,0.));
#278=VECTOR('',#277,4.579289322);
#279=LINE('',#276,#278);
#280=EDGE_CURVE('',#273,#275,#279,.T.);
#281=ORIENTED_EDGE('',*,*,#280,.T.);
#282=CARTESIAN_POINT('',(-0.000398947,-8.107824529,14.854240214));
#283=VERTEX_POINT('',#282);
#284=CARTESIAN_POINT('',(-0.000398947,-8.107824529,10.954240214));
#285=DIRECTION('',(0.,1.,-0.));
#286=DIRECTION('',(0.,0.,1.));
#287=AXIS2_PLACEMENT_3D('',#284,#285,#286);
#288=CIRCLE('',#287,3.9);
#289=EDGE_CURVE('',#275,#283,#288,.T.);
#290=ORIENTED_EDGE('',*,*,#289,.T.);
#291=CARTESIAN_POINT('',(-0.000398947,-8.107824529,10.954240214));
#292=DIRECTION('',(0.,1.,-0.));
#293=DIRECTION('',(0.,0.,1.));
#294=AXIS2_PLACEMENT_3D('',#291,#292,#293);
#295=CIRCLE('',#294,3.9);
#296=EDGE_CURVE('',#283,#275,#295,.T.);
#297=ORIENTED_EDGE('',*,*,#296,.T.);
#298=ORIENTED_EDGE('',*,*,#280,.F.);
#299=CARTESIAN_POINT('',(-0.000398947,-3.528535207,10.954240214));
#300=DIRECTION('',(-0.,-1.,0.));
#301=DIRECTION('',(1.,-0.,0.));
#302=AXIS2_PLACEMENT_3D('',#299,#300,#301);
#303=CIRCLE('',#302,3.9);
#304=EDGE_CURVE('',#273,#273,#303,.T.);
#305=ORIENTED_EDGE('',*,*,#304,.T.);
#306=EDGE_LOOP('',(#281,#290,#297,#298,#305));
#307=FACE_BOUND('',#306,.T.);
#308=ADVANCED_FACE('',(#307),#271,.T.);
#309=CARTESIAN_POINT('',(1.499601053,-3.528535207,35.954240214));
#310=DIRECTION('',(-0.,-1.,0.));
#311=DIRECTION('',(0.,-0.,-1.));
#312=AXIS2_PLACEMENT_3D('',#309,#310,#311);
#313=PLANE('',#312);
#314=ORIENTED_EDGE('',*,*,#304,.F.);
#315=EDGE_LOOP('',(#314));
#316=FACE_BOUND('',#315,.T.);
#317=ORIENTED_EDGE('',*,*,#126,.T.);
#318=ORIENTED_EDGE('',*,*,#133,.T.);
#319=EDGE_LOOP('',(#317,#318));
#320=FACE_BOUND('',#319,.T.);
#321=ADVANCED_FACE('',(#316,#320),#313,.T.);
#322=CARTESIAN_POINT('',(-0.300398947,1.397162611,8.584624972));
#323=DIRECTION('',(0.5,-0.,0.866025404));
#324=DIRECTION('',(-0.866025404,0.,0.5));
#325=AXIS2_PLACEMENT_3D('',#322,#323,#324);
#326=PLANE('',#325);
#327=CARTESIAN_POINT('',(-1.902545944,-8.228535207,9.509624972));
#328=VERTEX_POINT('',#327);
#329=CARTESIAN_POINT('',(-1.902545944,-6.228535207,9.509624972));
#330=VERTEX_POINT('',#329);
#331=CARTESIAN_POINT('',(-1.902545944,-8.228535207,9.509624972));
#332=DIRECTION('',(0.,1.,-0.));
#333=VECTOR('',#332,2.);
#334=LINE('',#331,#333);
#335=EDGE_CURVE('',#328,#330,#334,.T.);
#336=ORIENTED_EDGE('',*,*,#335,.F.);
#337=CARTESIAN_POINT('',(-0.300398947,-8.228535207,8.584624972));
#338=VERTEX_POINT('',#337);
#339=CARTESIAN_POINT('',(-1.902545944,-8.228535207,9.509624972));
#340=DIRECTION('',(0.866025404,-0.,-0.5));
#341=VECTOR('',#340,1.85);
#342=LINE('',#339,#341);
#343=EDGE_CURVE('',#328,#338,#342,.T.);
#344=ORIENTED_EDGE('',*,*,#343,.T.);
#345=CARTESIAN_POINT('',(-0.300398947,-8.228535207,8.584624972));
#346=DIRECTION('',(0.,1.,-0.));
#347=VECTOR('',#346,5.2);
#348=LINE('',#345,#347);
#349=EDGE_CURVE('',#338,#55,#348,.T.);
#350=ORIENTED_EDGE('',*,*,#349,.T.);
#351=ORIENTED_EDGE('',*,*,#98,.T.);
#352=ORIENTED_EDGE('',*,*,#194,.F.);
#353=CARTESIAN_POINT('',(-1.902545944,-4.729103012,9.509624972));
#354=DIRECTION('',(-0.,-1.,0.));
#355=VECTOR('',#354,1.499432195);
#356=LINE('',#353,#355);
#357=EDGE_CURVE('',#183,#330,#356,.T.);
#358=ORIENTED_EDGE('',*,*,#357,.T.);
#359=EDGE_LOOP('',(#336,#344,#350,#351,#352,#358));
#360=FACE_BOUND('',#359,.T.);
#361=ADVANCED_FACE('',(#360),#326,.T.);
#362=CARTESIAN_POINT('',(-1.902545944,1.397162611,12.398855456));
#363=DIRECTION('',(0.5,-0.,-0.866025404));
#364=DIRECTION('',(0.866025404,-0.,0.5));
#365=AXIS2_PLACEMENT_3D('',#362,#363,#364);
#366=PLANE('',#365);
#367=CARTESIAN_POINT('',(-0.300398947,-8.228535207,13.323855456));
#368=VERTEX_POINT('',#367);
#369=CARTESIAN_POINT('',(-0.300398947,-8.228535207,13.323855456));
#370=DIRECTION('',(0.,1.,-0.));
#371=VECTOR('',#370,5.2);
#372=LINE('',#369,#371);
#373=EDGE_CURVE('',#368,#71,#372,.T.);
#374=ORIENTED_EDGE('',*,*,#373,.F.);
#375=CARTESIAN_POINT('',(-1.902545944,-8.228535207,12.398855456));
#376=VERTEX_POINT('',#375);
#377=CARTESIAN_POINT('',(-0.300398947,-8.228535207,13.323855456));
#378=DIRECTION('',(-0.866025404,0.,-0.5));
#379=VECTOR('',#378,1.85);
#380=LINE('',#377,#379);
#381=EDGE_CURVE('',#368,#376,#380,.T.);
#382=ORIENTED_EDGE('',*,*,#381,.T.);
#383=CARTESIAN_POINT('',(-1.902545944,-6.228535207,12.398855456));
#384=VERTEX_POINT('',#383);
#385=CARTESIAN_POINT('',(-1.902545944,-8.228535207,12.398855456));
#386=DIRECTION('',(0.,1.,-0.));
#387=VECTOR('',#386,2.);
#388=LINE('',#385,#387);
#389=EDGE_CURVE('',#376,#384,#388,.T.);
#390=ORIENTED_EDGE('',*,*,#389,.T.);
#391=CARTESIAN_POINT('',(-1.902545944,-6.228535207,12.398855456));
#392=DIRECTION('',(0.,1.,-0.));
#393=VECTOR('',#392,1.5);
#394=LINE('',#391,#393);
#395=EDGE_CURVE('',#384,#175,#394,.T.);
#396=ORIENTED_EDGE('',*,*,#395,.T.);
#397=ORIENTED_EDGE('',*,*,#180,.T.);
#398=ORIENTED_EDGE('',*,*,#84,.T.);
#399=EDGE_LOOP('',(#374,#382,#390,#396,#397,#398));
#400=FACE_BOUND('',#399,.T.);
#401=ADVANCED_FACE('',(#400),#366,.T.);
#402=CARTESIAN_POINT('',(0.950674551,-10.028535207,9.306932593));
#403=DIRECTION('',(0.5,-0.,-0.866025404));
#404=DIRECTION('',(0.866025404,0.,0.5));
#405=AXIS2_PLACEMENT_3D('',#402,#403,#404);
#406=PLANE('',#405);
#407=ORIENTED_EDGE('',*,*,#349,.F.);
#408=CARTESIAN_POINT('',(-0.300398947,-8.228535207,8.584624972));
#409=DIRECTION('',(0.866025404,-0.,0.5));
#410=VECTOR('',#409,2.889230485);
#411=LINE('',#408,#410);
#412=EDGE_CURVE('',#338,#145,#411,.T.);
#413=ORIENTED_EDGE('',*,*,#412,.T.);
#414=ORIENTED_EDGE('',*,*,#150,.T.);
#415=ORIENTED_EDGE('',*,*,#60,.T.);
#416=EDGE_LOOP('',(#407,#413,#414,#415));
#417=FACE_BOUND('',#416,.T.);
#418=ADVANCED_FACE('',(#417),#406,.F.);
#419=CARTESIAN_POINT('',(-1.902545944,-10.028535207,10.954240214));
#420=DIRECTION('',(1.,0.,0.));
#421=DIRECTION('',(-0.,0.,1.));
#422=AXIS2_PLACEMENT_3D('',#419,#420,#421);
#423=PLANE('',#422);
#424=CARTESIAN_POINT('',(-1.902545944,-6.228535207,12.398855456));
#425=DIRECTION('',(0.,-0.,-1.));
#426=VECTOR('',#425,2.889230485);
#427=LINE('',#424,#426);
#428=EDGE_CURVE('',#384,#330,#427,.T.);
#429=ORIENTED_EDGE('',*,*,#428,.F.);
#430=ORIENTED_EDGE('',*,*,#389,.F.);
#431=CARTESIAN_POINT('',(-1.902545944,-8.228535207,12.398855456));
#432=DIRECTION('',(0.,-0.,-1.));
#433=VECTOR('',#432,2.889230485);
#434=LINE('',#431,#433);
#435=EDGE_CURVE('',#376,#328,#434,.T.);
#436=ORIENTED_EDGE('',*,*,#435,.T.);
#437=ORIENTED_EDGE('',*,*,#335,.T.);
#438=EDGE_LOOP('',(#429,#430,#436,#437));
#439=FACE_BOUND('',#438,.T.);
#440=ADVANCED_FACE('',(#439),#423,.T.);
#441=CARTESIAN_POINT('',(0.950674551,-10.028535207,12.601547835));
#442=DIRECTION('',(-0.5,-0.,-0.866025404));
#443=DIRECTION('',(0.866025404,-0.,-0.5));
#444=AXIS2_PLACEMENT_3D('',#441,#442,#443);
#445=PLANE('',#444);
#446=ORIENTED_EDGE('',*,*,#164,.F.);
#447=CARTESIAN_POINT('',(2.20174805,-8.228535207,11.879240214));
#448=DIRECTION('',(-0.866025404,0.,0.5));
#449=VECTOR('',#448,2.889230485);
#450=LINE('',#447,#449);
#451=EDGE_CURVE('',#153,#368,#450,.T.);
#452=ORIENTED_EDGE('',*,*,#451,.T.);
#453=ORIENTED_EDGE('',*,*,#373,.T.);
#454=ORIENTED_EDGE('',*,*,#76,.F.);
#455=EDGE_LOOP('',(#446,#452,#453,#454));
#456=FACE_BOUND('',#455,.T.);
#457=ADVANCED_FACE('',(#456),#445,.T.);
#458=CARTESIAN_POINT('',(2.40174805,-8.428535207,35.954240214));
#459=DIRECTION('',(0.707106781,0.707106781,0.));
#460=DIRECTION('',(0.,-0.,-1.));
#461=AXIS2_PLACEMENT_3D('',#458,#459,#460);
#462=PLANE('',#461);
#463=CARTESIAN_POINT('',(2.20174805,-8.228535207,11.879240214));
#464=DIRECTION('',(0.654653671,-0.654653671,0.377964473));
#465=VECTOR('',#464,0.305505046);
#466=LINE('',#463,#465);
#467=EDGE_CURVE('',#153,#232,#466,.T.);
#468=ORIENTED_EDGE('',*,*,#467,.F.);
#469=ORIENTED_EDGE('',*,*,#158,.F.);
#470=CARTESIAN_POINT('',(2.40174805,-8.428535207,9.91377016));
#471=DIRECTION('',(-0.654653671,0.654653671,0.377964473));
#472=VECTOR('',#471,0.305505046);
#473=LINE('',#470,#472);
#474=EDGE_CURVE('',#240,#145,#473,.T.);
#475=ORIENTED_EDGE('',*,*,#474,.F.);
#476=ORIENTED_EDGE('',*,*,#245,.F.);
#477=EDGE_LOOP('',(#468,#469,#475,#476));
#478=FACE_BOUND('',#477,.T.);
#479=ADVANCED_FACE('',(#478),#462,.F.);
#480=CARTESIAN_POINT('',(0.950674551,-8.228535207,9.306932593));
#481=DIRECTION('',(-0.353553391,-0.707106781,0.612372436));
#482=DIRECTION('',(-0.866025404,0.,-0.5));
#483=AXIS2_PLACEMENT_3D('',#480,#481,#482);
#484=PLANE('',#483);
#485=ORIENTED_EDGE('',*,*,#474,.T.);
#486=ORIENTED_EDGE('',*,*,#412,.F.);
#487=CARTESIAN_POINT('',(-0.300398947,-8.428535207,8.353684864));
#488=DIRECTION('',(0.,0.654653671,0.755928946));
#489=VECTOR('',#488,0.305505046);
#490=LINE('',#487,#489);
#491=EDGE_CURVE('',#206,#338,#490,.T.);
#492=ORIENTED_EDGE('',*,*,#491,.F.);
#493=ORIENTED_EDGE('',*,*,#251,.F.);
#494=EDGE_LOOP('',(#485,#486,#492,#493));
#495=FACE_BOUND('',#494,.T.);
#496=ADVANCED_FACE('',(#495),#484,.T.);
#497=CARTESIAN_POINT('',(-8.649642996,-8.428535207,18.375233863));
#498=DIRECTION('',(0.353553391,0.707106781,0.612372436));
#499=DIRECTION('',(0.866025404,-0.,-0.5));
#500=AXIS2_PLACEMENT_3D('',#497,#498,#499);
#501=PLANE('',#500);
#502=ORIENTED_EDGE('',*,*,#467,.T.);
#503=ORIENTED_EDGE('',*,*,#237,.F.);
#504=CARTESIAN_POINT('',(-0.300398947,-8.228535207,13.323855456));
#505=DIRECTION('',(0.,-0.654653671,0.755928946));
#506=VECTOR('',#505,0.305505046);
#507=LINE('',#504,#506);
#508=EDGE_CURVE('',#368,#224,#507,.T.);
#509=ORIENTED_EDGE('',*,*,#508,.F.);
#510=ORIENTED_EDGE('',*,*,#451,.F.);
#511=EDGE_LOOP('',(#502,#503,#509,#510));
#512=FACE_BOUND('',#511,.T.);
#513=ADVANCED_FACE('',(#512),#501,.F.);
#514=CARTESIAN_POINT('',(-10.901789993,-8.428535207,14.474400838));
#515=DIRECTION('',(-0.353553391,0.707106781,-0.612372436));
#516=DIRECTION('',(-0.866025404,0.,0.5));
#517=AXIS2_PLACEMENT_3D('',#514,#515,#516);
#518=PLANE('',#517);
#519=ORIENTED_EDGE('',*,*,#491,.T.);
#520=ORIENTED_EDGE('',*,*,#343,.F.);
#521=CARTESIAN_POINT('',(-2.102545944,-8.428535207,9.394154918));
#522=DIRECTION('',(0.654653671,0.654653671,0.377964473));
#523=VECTOR('',#522,0.305505046);
#524=LINE('',#521,#523);
#525=EDGE_CURVE('',#208,#328,#524,.T.);
#526=ORIENTED_EDGE('',*,*,#525,.F.);
#527=ORIENTED_EDGE('',*,*,#213,.F.);
#528=EDGE_LOOP('',(#519,#520,#526,#527));
#529=FACE_BOUND('',#528,.T.);
#530=ADVANCED_FACE('',(#529),#518,.F.);
#531=CARTESIAN_POINT('',(10.748845101,-8.428535207,19.93407959));
#532=DIRECTION('',(-0.353553391,0.707106781,0.612372436));
#533=DIRECTION('',(0.866025404,-0.,0.5));
#534=AXIS2_PLACEMENT_3D('',#531,#532,#533);
#535=PLANE('',#534);
#536=ORIENTED_EDGE('',*,*,#508,.T.);
#537=ORIENTED_EDGE('',*,*,#229,.F.);
#538=CARTESIAN_POINT('',(-1.902545944,-8.228535207,12.398855456));
#539=DIRECTION('',(-0.654653671,-0.654653671,0.377964473));
#540=VECTOR('',#539,0.305505046);
#541=LINE('',#538,#540);
#542=EDGE_CURVE('',#376,#216,#541,.T.);
#543=ORIENTED_EDGE('',*,*,#542,.F.);
#544=ORIENTED_EDGE('',*,*,#381,.F.);
#545=EDGE_LOOP('',(#536,#537,#543,#544));
#546=FACE_BOUND('',#545,.T.);
#547=ADVANCED_FACE('',(#546),#535,.F.);
#548=CARTESIAN_POINT('',(-2.102545944,-8.428535207,35.954240214));
#549=DIRECTION('',(-0.707106781,0.707106781,-0.));
#550=DIRECTION('',(-0.,0.,1.));
#551=AXIS2_PLACEMENT_3D('',#548,#549,#550);
#552=PLANE('',#551);
#553=ORIENTED_EDGE('',*,*,#525,.T.);
#554=ORIENTED_EDGE('',*,*,#435,.F.);
#555=ORIENTED_EDGE('',*,*,#542,.T.);
#556=ORIENTED_EDGE('',*,*,#221,.F.);
#557=EDGE_LOOP('',(#553,#554,#555,#556));
#558=FACE_BOUND('',#557,.T.);
#559=ADVANCED_FACE('',(#558),#552,.F.);
#560=CARTESIAN_POINT('',(-0.000398947,-8.393179868,10.954240214));
#561=DIRECTION('',(0.,1.,-0.));
#562=DIRECTION('',(1.,0.,0.));
#563=AXIS2_PLACEMENT_3D('',#560,#561,#562);
#564=CONICAL_SURFACE('',#563,3.614644661,45.);
#565=CARTESIAN_POINT('',(3.899601053,-8.107824529,10.954240214));
#566=DIRECTION('',(-0.707106781,-0.707106781,-0.));
#567=VECTOR('',#566,0.453553391);
#568=LINE('',#565,#567);
#569=EDGE_CURVE('',#275,#256,#568,.T.);
#570=ORIENTED_EDGE('',*,*,#569,.T.);
#571=ORIENTED_EDGE('',*,*,#262,.F.);
#572=ORIENTED_EDGE('',*,*,#569,.F.);
#573=ORIENTED_EDGE('',*,*,#296,.F.);
#574=ORIENTED_EDGE('',*,*,#289,.F.);
#575=EDGE_LOOP('',(#570,#571,#572,#573,#574));
#576=FACE_BOUND('',#575,.T.);
#577=ADVANCED_FACE('',(#576),#564,.T.);
#578=CARTESIAN_POINT('',(-1.843593786,-5.478511649,12.350818509));
#579=DIRECTION('',(0.631687613,0.,0.775223039));
#580=DIRECTION('',(-0.775223039,0.,0.631687613));
#581=AXIS2_PLACEMENT_3D('',#578,#579,#580);
#582=PLANE('',#581);
#583=CARTESIAN_POINT('',(-1.667525005,-6.228488092,12.206438367));
#584=VERTEX_POINT('',#583);
#585=CARTESIAN_POINT('',(-1.902545944,-4.728535207,12.398855456));
#586=CARTESIAN_POINT('',(-1.666743689,-6.228400422,12.206712864));
#587=B_SPLINE_CURVE_WITH_KNOTS('',1,(#585,#586),.UNSPECIFIED.,.F.,.F.,(2,2),(0.,1.),.UNSPECIFIED.);
#588=EDGE_CURVE('',#175,#584,#587,.T.);
#589=ORIENTED_EDGE('',*,*,#588,.F.);
#590=ORIENTED_EDGE('',*,*,#395,.F.);
#591=CARTESIAN_POINT('',(-1.667081373,-6.228535207,12.206988025));
#592=DIRECTION('',(-0.775223039,0.,0.631687613));
#593=VECTOR('',#592,0.30373784);
#594=LINE('',#591,#593);
#595=EDGE_CURVE('',#584,#384,#594,.T.);
#596=ORIENTED_EDGE('',*,*,#595,.F.);
#597=EDGE_LOOP('',(#589,#590,#596));
#598=FACE_BOUND('',#597,.T.);
#599=ADVANCED_FACE('',(#598),#582,.T.);
#600=CARTESIAN_POINT('',(-1.843590083,-5.853535207,9.557653709));
#601=DIRECTION('',(0.631598882,-0.,-0.775295333));
#602=DIRECTION('',(0.775295333,0.,0.631598882));
#603=AXIS2_PLACEMENT_3D('',#600,#601,#602);
#604=PLANE('',#603);
#605=CARTESIAN_POINT('',(-1.666722498,-6.228535207,9.701739923));
#606=VERTEX_POINT('',#605);
#607=CARTESIAN_POINT('',(-1.666722498,-6.228535207,9.701739923));
#608=DIRECTION('',(-0.154079638,0.980052919,-0.125521879));
#609=VECTOR('',#608,1.530529599);
#610=LINE('',#607,#609);
#611=EDGE_CURVE('',#606,#183,#610,.T.);
#612=ORIENTED_EDGE('',*,*,#611,.F.);
#613=CARTESIAN_POINT('',(-1.902545944,-6.228535207,9.509624972));
#614=DIRECTION('',(0.775295333,0.,0.631598882));
#615=VECTOR('',#614,0.304172405);
#616=LINE('',#613,#615);
#617=EDGE_CURVE('',#330,#606,#616,.T.);
#618=ORIENTED_EDGE('',*,*,#617,.F.);
#619=ORIENTED_EDGE('',*,*,#357,.F.);
#620=EDGE_LOOP('',(#612,#618,#619));
#621=FACE_BOUND('',#620,.T.);
#622=ADVANCED_FACE('',(#621),#604,.T.);
#623=CARTESIAN_POINT('',(-1.843590083,-5.103535207,10.279961331));
#624=DIRECTION('',(-0.987866098,-0.155307992,-0.));
#625=DIRECTION('',(-0.155307992,0.987866098,-0.));
#626=AXIS2_PLACEMENT_3D('',#623,#624,#625);
#627=PLANE('',#626);
#628=ORIENTED_EDGE('',*,*,#188,.F.);
#629=ORIENTED_EDGE('',*,*,#588,.T.);
#630=CARTESIAN_POINT('',(-1.666722498,-6.228535207,12.206740505));
#631=DIRECTION('',(0.,-0.,-1.));
#632=VECTOR('',#631,2.505000582);
#633=LINE('',#630,#632);
#634=EDGE_CURVE('',#584,#606,#633,.T.);
#635=ORIENTED_EDGE('',*,*,#634,.T.);
#636=ORIENTED_EDGE('',*,*,#611,.T.);
#637=EDGE_LOOP('',(#628,#629,#635,#636));
#638=FACE_BOUND('',#637,.T.);
#639=ADVANCED_FACE('',(#638),#627,.F.);
#640=CARTESIAN_POINT('',(-1.785205434,-6.228535207,10.954240214));
#641=DIRECTION('',(-0.,-1.,0.));
#642=DIRECTION('',(-1.,-0.,-0.));
#643=AXIS2_PLACEMENT_3D('',#640,#641,#642);
#644=PLANE('',#643);
#645=ORIENTED_EDGE('',*,*,#428,.T.);
#646=ORIENTED_EDGE('',*,*,#617,.T.);
#647=ORIENTED_EDGE('',*,*,#634,.F.);
#648=ORIENTED_EDGE('',*,*,#595,.T.);
#649=EDGE_LOOP('',(#645,#646,#647,#648));
#650=FACE_BOUND('',#649,.T.);
#651=ADVANCED_FACE('',(#650),#644,.T.);
#652=CLOSED_SHELL('',(#102,#137,#168,#199,#266,#308,#321,#361,#401,#418,#440,#457,#479,#496,#513,#530,#547,#559,#577,#599,#622,#639,#651));
#653=MANIFOLD_SOLID_BREP('Solid 1931',#652);
#26=STYLED_ITEM('',(),#653);
#16=SHAPE_REPRESENTATION('root',(#15),#10);
#17=ADVANCED_BREP_SHAPE_REPRESENTATION('root',(#653),#10);
#661=SHAPE_REPRESENTATION_RELATIONSHIP('','',#16,#17);
#662=APPLICATION_CONTEXT('configuration controlled 3D design of mechanical parts and assemblies');
#663=APPLICATION_PROTOCOL_DEFINITION('international standard','configuration_control_3d_design_ed2_mim',2004,#662);
#664=PRODUCT_CONTEXT('',#662,'mechanical');
#665=PRODUCT_DEFINITION_CONTEXT('part definition',#662,'design');
#24=PRODUCT('root','root','',(#664));
#666=PRODUCT_RELATED_PRODUCT_CATEGORY('part','',(#24));
#667=PRODUCT_DEFINITION_FORMATION_WITH_SPECIFIED_SOURCE('','',#24,.NOT_KNOWN.);
#25=PRODUCT_DEFINITION('design','',#667,#665);
#23=PRODUCT_DEFINITION_SHAPE('','',#25);
#668=SHAPE_DEFINITION_REPRESENTATION(#23,#16);
#11=DRAUGHTING_MODEL('',(),#10);
#1=MECHANICAL_DESIGN_GEOMETRIC_PRESENTATION_REPRESENTATION('',(#26),#10);
ENDSEC;
END-ISO-10303-21;
